<svg width="20" height="21" viewBox="0 0 20 21" fill="none" xmlns="http://www.w3.org/2000/svg">
<path d="M10 2.375C6.89453 2.375 4.375 4.77305 4.375 7.72656C4.375 11.125 8.125 16.5105 9.50195 18.3707C9.55911 18.4492 9.63402 18.5131 9.72058 18.5572C9.80713 18.6012 9.90288 18.6242 10 18.6242C10.0971 18.6242 10.1929 18.6012 10.2794 18.5572C10.366 18.5131 10.4409 18.4492 10.498 18.3707C11.875 16.5113 15.625 11.1277 15.625 7.72656C15.625 4.77305 13.1055 2.375 10 2.375Z" stroke="white" stroke-linecap="round" stroke-linejoin="round"/>
<path d="M10 9.875C11.0355 9.875 11.875 9.03553 11.875 8C11.875 6.96447 11.0355 6.125 10 6.125C8.96447 6.125 8.125 6.96447 8.125 8C8.125 9.03553 8.96447 9.875 10 9.875Z" stroke="white" stroke-linecap="round" stroke-linejoin="round"/>
</svg>
