<svg width="149" height="102" viewBox="0 0 149 102" fill="none" xmlns="http://www.w3.org/2000/svg">
<g clip-path="url(#clip0_107_583)">
<path d="M3.06449 91.5053H0.884705V61.838H1.09804C3.83376 61.838 6.08633 62.8504 7.86581 64.8827C9.64528 66.9074 10.535 69.4584 10.535 72.5294C10.535 74.4828 10.1761 76.2306 9.45829 77.7893C8.7455 79.3417 7.56964 80.8991 5.94704 82.4703C6.31096 83.8323 6.90328 85.0814 7.72023 86.2254C8.54221 87.3693 9.52104 88.3028 10.6542 89.0195V92.0641C9.53108 91.4727 8.55852 90.8087 7.73529 90.0582C6.9196 89.3164 6.20681 88.4544 5.59315 87.4808C4.9431 86.4096 4.39094 85.1804 3.94419 83.7859C3.49117 82.3926 3.26152 81.4191 3.26152 80.854C3.26152 80.7087 3.49619 80.5182 3.95423 80.2751C4.41729 80.0321 4.84397 79.7226 5.22923 79.348C6.23316 78.4082 6.99238 77.3683 7.5069 76.2244C8.02267 75.0804 8.27742 73.8638 8.27742 72.5683C8.27742 70.6625 7.788 68.9986 6.81544 67.5652C5.83786 66.1319 4.58922 65.2773 3.06449 64.9942V91.5053ZM30.881 86.7642V89.8489C29.8356 90.5919 28.8317 91.1369 27.8692 91.4727C26.9117 91.8135 25.9077 91.9852 24.8624 91.9852C21.4189 91.9852 18.5514 90.5192 16.2625 87.5936C13.9785 84.6667 12.834 81.0244 12.834 76.6717C12.834 72.3189 13.9785 68.6766 16.2625 65.751C18.5514 62.8253 21.4189 61.3581 24.8624 61.3581C25.9291 61.3581 26.943 61.5223 27.9106 61.8581C28.8731 62.1938 29.867 62.7263 30.881 63.4556V66.5792C29.877 65.5931 28.8894 64.8827 27.9156 64.4492C26.9481 64.0219 25.84 63.8039 24.6026 63.8039C22.1204 63.8039 19.9933 64.8626 18.2138 66.9738C16.4394 69.0838 15.3727 71.839 15.0301 75.2445H26.2303V77.8093H15.0301C15.3062 81.2875 16.3352 84.1142 18.1247 86.2843C19.9143 88.4544 22.074 89.5394 24.6026 89.5394C25.84 89.5394 26.9481 89.3227 27.9156 88.8954C28.8894 88.4606 29.877 87.7515 30.881 86.7642ZM33.7271 91.5053V30.9616L34.1325 30.9604L34.7925 0L35.4326 30.9604L35.9069 30.9616V91.5053H33.7271ZM41.0307 77.9797H51.0199C50.6497 75.7708 50.0574 73.5882 49.2354 71.4243C48.4084 69.2617 47.3417 67.0916 46.0303 64.9228C44.7603 66.9676 43.715 69.0575 42.893 71.2076C42.0711 73.3651 41.4524 75.6192 41.0307 77.9797ZM38.29 91.5053C38.2787 91.2485 38.2737 90.9653 38.2687 90.6571C38.2636 90.3476 38.2586 89.894 38.2586 89.2888C38.2586 83.2271 38.8823 77.9797 40.1259 73.5418C41.3696 69.1039 43.341 65.0731 46.0303 61.4371C48.7259 65.0731 50.6974 69.0976 51.9397 73.5217C53.1834 77.9472 53.8083 83.1544 53.8083 89.1385C53.8083 89.7625 53.8033 90.2423 53.797 90.5719C53.792 90.9001 53.7819 91.2096 53.7606 91.5053H51.7791V90.4466C51.7791 88.3491 51.7427 86.501 51.6699 84.8835C51.6022 83.2734 51.498 81.8664 51.3687 80.656H40.6518C40.5212 82.1095 40.4221 83.727 40.3543 85.5225C40.2866 87.3167 40.2565 89.3089 40.2565 91.5053H38.29ZM58.1051 91.5053C59.1505 90.6044 59.9473 89.5257 60.4983 88.2564C61.0441 86.9947 61.3202 85.6002 61.3202 84.0891C61.3202 83.0755 61.1433 82.1157 60.7844 81.2086C60.4305 80.3015 59.8382 79.3279 58.9999 78.2892C58.9422 78.2103 58.8493 78.0925 58.7301 77.9209C56.544 75.1731 55.4522 72.6547 55.4522 70.353C55.4522 67.8609 56.1236 65.7247 57.4651 63.9492C58.8079 62.1675 60.4568 61.2792 62.4183 61.2792C63.0683 61.2792 63.7134 61.3844 64.3534 61.5887C64.9934 61.7929 65.6585 62.1149 66.3512 62.5484V65.3826C65.794 64.8438 65.2017 64.4291 64.5767 64.1459C63.9468 63.8628 63.313 63.7249 62.663 63.7249C61.2587 63.7249 60.0929 64.3301 59.1718 65.5467C58.2457 66.7571 57.7826 68.2819 57.7826 70.1225C57.7826 71.1624 57.9859 72.1485 58.3862 73.0882C58.7866 74.0279 59.473 75.0742 60.4518 76.2306C61.5285 77.4999 62.3141 78.7566 62.7973 79.992C63.2867 81.2349 63.5314 82.5831 63.5314 84.049C63.5314 85.3834 63.3494 86.6852 62.9792 87.9482C62.6153 89.2174 62.0744 90.4002 61.3516 91.5053H58.1051ZM81.2972 91.5053V61.838H83.477V91.5053H81.2972ZM87.2895 91.5053V61.3581C90.0729 63.0546 92.4145 65.2373 94.3032 67.9198C96.1969 70.5961 97.5434 73.6145 98.3453 76.9811L98.0692 61.838H100.186V91.5053H98.0692C98.0792 91.2622 98.0855 90.9991 98.0905 90.716C98.0956 90.4328 98.1006 90.0131 98.1006 89.4605C98.1006 84.3384 97.3715 79.8278 95.9208 75.9224C94.4638 72.017 92.2941 68.7555 89.4078 66.1319V91.5053H87.2895ZM103.876 61.838H104.182C108.1 61.838 111.221 63.1924 113.536 65.8951C115.85 68.5977 117.011 72.1874 117.011 76.6717C117.011 81.1033 115.856 84.6805 113.546 87.4082C111.231 90.1383 108.173 91.5053 104.364 91.5053H103.876V61.838ZM105.961 64.5732V88.7889C108.677 88.6511 110.84 87.4746 112.464 85.2656C114.082 83.0567 114.893 80.1899 114.893 76.6717C114.893 73.1546 114.067 70.2678 112.418 68.0188C110.763 65.7773 108.614 64.6258 105.961 64.5732ZM119.753 91.5053V61.838H121.933V91.5053H119.753ZM127.057 77.9797H137.046C136.675 75.7708 136.083 73.5882 135.26 71.4243C134.433 69.2617 133.367 67.0916 132.056 64.9228C130.786 66.9676 129.741 69.0575 128.919 71.2076C128.097 73.3651 127.478 75.6192 127.057 77.9797ZM124.315 91.5053C124.304 91.2485 124.299 90.9653 124.294 90.6571C124.288 90.3476 124.283 89.894 124.283 89.2888C124.283 83.2271 124.908 77.9797 126.152 73.5418C127.394 69.1039 129.367 65.0731 132.056 61.4371C134.75 65.0731 136.722 69.0976 137.965 73.5217C139.209 77.9472 139.834 83.1544 139.834 89.1385C139.834 89.7625 139.828 90.2423 139.823 90.5719C139.818 90.9001 139.808 91.2096 139.786 91.5053H137.805V90.4466C137.805 88.3491 137.768 86.501 137.696 84.8835C137.628 83.2734 137.524 81.8664 137.393 80.656H126.676C126.547 82.1095 126.448 83.727 126.38 85.5225C126.312 87.3167 126.281 89.3089 126.281 91.5053H124.315Z" fill="white"/>
<path d="M3.17243 101.791C3.17243 101.815 3.16866 101.837 3.16114 101.856C3.15486 101.875 3.13855 101.888 3.11345 101.902C3.0896 101.915 3.05447 101.924 3.01055 101.93C2.96662 101.936 2.90764 101.94 2.83486 101.94C2.77086 101.94 2.71815 101.936 2.67799 101.93C2.63783 101.924 2.60521 101.912 2.58136 101.9C2.55627 101.886 2.53744 101.867 2.52364 101.842C2.50983 101.816 2.49854 101.786 2.4885 101.748L2.05179 100.331C1.99908 100.169 1.94512 100.022 1.89116 99.8875C1.83469 99.7522 1.77069 99.6369 1.69414 99.5379C1.61884 99.4415 1.52974 99.365 1.42684 99.3112C1.32394 99.2573 1.1997 99.231 1.05538 99.231H0.632478V101.791C0.632478 101.815 0.624949 101.837 0.614909 101.856C0.603615 101.875 0.586046 101.888 0.563458 101.9C0.539614 101.911 0.509496 101.92 0.468084 101.927C0.426672 101.935 0.37773 101.94 0.314984 101.94C0.254748 101.94 0.203296 101.935 0.163139 101.927C0.121727 101.92 0.090354 101.911 0.0652557 101.9C0.0414122 101.888 0.0225885 101.875 0.015059 101.856C0.00376475 101.837 0 101.815 0 101.791V96.2239C0 96.1024 0.0250983 96.0184 0.0740401 95.9696C0.125492 95.9219 0.178198 95.8981 0.233415 95.8981H1.24613C1.36535 95.8981 1.46574 95.9019 1.54606 95.9094C1.62512 95.9169 1.69665 95.927 1.75939 95.9345C1.94512 95.9758 2.10701 96.0397 2.24756 96.1262C2.38936 96.2126 2.50732 96.3229 2.6027 96.457C2.69807 96.5898 2.7696 96.7426 2.81854 96.913C2.86623 97.0859 2.89007 97.2751 2.89007 97.4831C2.89007 97.6848 2.86874 97.8653 2.82482 98.0244C2.78215 98.1835 2.72066 98.3251 2.63909 98.4466C2.55878 98.5694 2.46215 98.6759 2.3492 98.7661C2.23626 98.8551 2.10951 98.9315 1.97022 98.9929C2.04928 99.0355 2.11955 99.0906 2.18355 99.1583C2.24756 99.2247 2.30654 99.3036 2.36175 99.3976C2.41697 99.4903 2.46968 99.5968 2.51862 99.7171C2.56756 99.8387 2.6165 99.974 2.66544 100.127L3.09211 101.451C3.126 101.563 3.14859 101.642 3.15863 101.686C3.16741 101.731 3.17243 101.766 3.17243 101.791ZM2.21995 97.5671C2.21995 97.3303 2.17854 97.1323 2.09571 96.9694C2.01038 96.8078 1.87234 96.69 1.67657 96.6186C1.61508 96.596 1.54606 96.5822 1.467 96.5722C1.3917 96.5635 1.2888 96.5584 1.16582 96.5584H0.632478V98.5832H1.24864C1.4168 98.5832 1.56112 98.5581 1.68159 98.508C1.80332 98.4567 1.90371 98.3852 1.98528 98.2938C2.06559 98.2023 2.12583 98.0946 2.16348 97.9718C2.20112 97.8465 2.21995 97.7124 2.21995 97.5671ZM6.73514 101.582C6.73514 101.637 6.73263 101.686 6.72761 101.727C6.72384 101.771 6.71506 101.805 6.70251 101.832C6.68996 101.861 6.67616 101.88 6.65984 101.892C6.64478 101.905 6.62596 101.911 6.60714 101.911H4.32319C4.26672 101.911 4.21401 101.887 4.16381 101.84C4.11362 101.791 4.08852 101.707 4.08852 101.587V96.2239C4.08852 96.1024 4.11362 96.0184 4.16381 95.9696C4.21401 95.9219 4.26672 95.8981 4.32319 95.8981H6.58078C6.60086 95.8981 6.61843 95.9044 6.63474 95.9169C6.6498 95.9295 6.66361 95.9495 6.67239 95.9771C6.68243 96.0046 6.69122 96.0397 6.69749 96.0823C6.70251 96.1237 6.70627 96.1763 6.70627 96.2377C6.70627 96.2928 6.70251 96.3429 6.69749 96.3843C6.69122 96.4269 6.68243 96.4595 6.67239 96.487C6.66361 96.5121 6.6498 96.5309 6.63474 96.5434C6.61843 96.5572 6.60086 96.5635 6.58078 96.5635H4.721V98.4491H6.316C6.33607 98.4491 6.35364 98.4567 6.36996 98.4704C6.38502 98.4842 6.39882 98.5043 6.41011 98.5281C6.42141 98.5531 6.42894 98.587 6.43396 98.6308C6.43898 98.6734 6.44149 98.7248 6.44149 98.7837C6.44149 98.8388 6.43898 98.8877 6.43396 98.9278C6.42894 98.9691 6.42141 99.0004 6.41011 99.0255C6.39882 99.0493 6.38502 99.0693 6.36996 99.0781C6.35364 99.0894 6.33607 99.0957 6.316 99.0957H4.721V101.247H6.60714C6.62596 101.247 6.64478 101.253 6.65984 101.266C6.67616 101.278 6.68996 101.297 6.70251 101.323C6.71506 101.35 6.72384 101.384 6.72761 101.426C6.73263 101.467 6.73514 101.52 6.73514 101.582ZM11.2478 101.628C11.2666 101.696 11.2779 101.751 11.2792 101.792C11.2804 101.835 11.2704 101.867 11.2516 101.887C11.2315 101.91 11.1989 101.924 11.1537 101.93C11.1085 101.936 11.0483 101.94 10.9717 101.94C10.8964 101.94 10.835 101.936 10.7898 101.932C10.7446 101.927 10.7107 101.92 10.6869 101.91C10.663 101.899 10.6467 101.882 10.6354 101.866C10.6241 101.846 10.6141 101.822 10.604 101.796L10.1962 100.331H8.21845L7.82817 101.777C7.82064 101.805 7.8106 101.828 7.79931 101.848C7.78676 101.868 7.76919 101.886 7.74535 101.9C7.72276 101.912 7.68887 101.924 7.64621 101.93C7.60354 101.936 7.54832 101.94 7.4793 101.94C7.40777 101.94 7.35005 101.935 7.30487 101.927C7.25969 101.92 7.22707 101.905 7.2095 101.882C7.19067 101.862 7.18189 101.831 7.18314 101.787C7.1844 101.746 7.19444 101.691 7.21452 101.623L8.80951 96.0385C8.81955 96.0034 8.8321 95.9758 8.84842 95.9545C8.86473 95.932 8.88732 95.9157 8.91869 95.9031C8.94881 95.8906 8.98771 95.8818 9.03666 95.8781C9.08434 95.8731 9.14458 95.8693 9.21862 95.8693C9.29642 95.8693 9.36168 95.8731 9.41313 95.8781C9.46458 95.8818 9.50599 95.8906 9.53737 95.9031C9.56999 95.9157 9.59384 95.9332 9.61141 95.957C9.62897 95.9796 9.64153 96.0084 9.65156 96.0422L11.2478 101.628ZM9.19979 96.6975H9.19603L8.37657 99.6958H10.0305L9.19979 96.6975ZM14.5093 101.563C14.5093 101.624 14.5068 101.677 14.5018 101.718C14.4968 101.761 14.4893 101.796 14.478 101.826C14.4667 101.855 14.4529 101.876 14.4378 101.891C14.4215 101.905 14.4027 101.911 14.3801 101.911H12.2768C12.2204 101.911 12.1677 101.887 12.1175 101.84C12.0673 101.791 12.0422 101.707 12.0422 101.587V96.0184C12.0422 95.9946 12.0472 95.9733 12.0572 95.9545C12.066 95.9345 12.0836 95.9207 12.1087 95.9094C12.1325 95.8981 12.1664 95.8906 12.2078 95.8818C12.2492 95.8743 12.2994 95.8693 12.3584 95.8693C12.4199 95.8693 12.4701 95.8743 12.5103 95.8818C12.5517 95.8906 12.5843 95.8981 12.6081 95.9094C12.6332 95.9207 12.6496 95.9345 12.6596 95.9545C12.6696 95.9733 12.6747 95.9946 12.6747 96.0184V101.218H14.3801C14.4027 101.218 14.4215 101.226 14.4378 101.241C14.4529 101.253 14.4667 101.273 14.478 101.301C14.4893 101.326 14.4968 101.361 14.5018 101.405C14.5068 101.447 14.5093 101.5 14.5093 101.563ZM19.5554 101.582C19.5554 101.637 19.5529 101.686 19.5478 101.727C19.5441 101.771 19.5353 101.805 19.5227 101.832C19.5102 101.861 19.4964 101.88 19.4801 101.892C19.465 101.905 19.4462 101.911 19.4274 101.911H17.1434C17.0869 101.911 17.0342 101.887 16.984 101.84C16.9338 101.791 16.9087 101.707 16.9087 101.587V96.2239C16.9087 96.1024 16.9338 96.0184 16.984 95.9696C17.0342 95.9219 17.0869 95.8981 17.1434 95.8981H19.401C19.4211 95.8981 19.4387 95.9044 19.455 95.9169C19.47 95.9295 19.4838 95.9495 19.4926 95.9771C19.5027 96.0046 19.5114 96.0397 19.5177 96.0823C19.5227 96.1237 19.5265 96.1763 19.5265 96.2377C19.5265 96.2928 19.5227 96.3429 19.5177 96.3843C19.5114 96.4269 19.5027 96.4595 19.4926 96.487C19.4838 96.5121 19.47 96.5309 19.455 96.5434C19.4387 96.5572 19.4211 96.5635 19.401 96.5635H17.5412V98.4491H19.1362C19.1563 98.4491 19.1739 98.4567 19.1902 98.4704C19.2052 98.4842 19.219 98.5043 19.2303 98.5281C19.2416 98.5531 19.2492 98.587 19.2542 98.6308C19.2592 98.6734 19.2617 98.7248 19.2617 98.7837C19.2617 98.8388 19.2592 98.8877 19.2542 98.9278C19.2492 98.9691 19.2416 99.0004 19.2303 99.0255C19.219 99.0493 19.2052 99.0693 19.1902 99.0781C19.1739 99.0894 19.1563 99.0957 19.1362 99.0957H17.5412V101.247H19.4274C19.4462 101.247 19.465 101.253 19.4801 101.266C19.4964 101.278 19.5102 101.297 19.5227 101.323C19.5353 101.35 19.5441 101.384 19.5478 101.426C19.5529 101.467 19.5554 101.52 19.5554 101.582ZM23.0666 100.226C23.0666 100.506 23.0252 100.757 22.9436 100.978C22.8608 101.198 22.7479 101.384 22.601 101.536C22.4555 101.691 22.2848 101.807 22.0865 101.882C21.8895 101.96 21.6774 102 21.449 102C21.2897 102 21.1416 101.982 21.0061 101.947C20.8705 101.915 20.7488 101.873 20.6421 101.822C20.5355 101.773 20.4464 101.723 20.3736 101.67C20.3008 101.617 20.2506 101.571 20.223 101.535C20.1941 101.498 20.174 101.45 20.1602 101.392C20.1464 101.336 20.1402 101.26 20.1402 101.163C20.1402 101.094 20.1427 101.039 20.1477 100.993C20.1527 100.949 20.1602 100.912 20.169 100.885C20.1791 100.856 20.1916 100.837 20.2067 100.826C20.2205 100.816 20.238 100.811 20.2581 100.811C20.292 100.811 20.3409 100.836 20.4024 100.889C20.4652 100.943 20.5455 100.999 20.6434 101.062C20.7425 101.123 20.8605 101.182 20.9985 101.236C21.1366 101.29 21.2972 101.316 21.4779 101.316C21.6159 101.316 21.7414 101.292 21.8556 101.247C21.9698 101.201 22.0677 101.134 22.1493 101.05C22.2321 100.964 22.2948 100.86 22.3388 100.736C22.3827 100.613 22.4053 100.471 22.4053 100.312C22.4053 100.143 22.3739 99.9965 22.3124 99.8762C22.2522 99.756 22.1706 99.6495 22.0702 99.558C21.9698 99.4653 21.8556 99.3826 21.7264 99.3074C21.5984 99.231 21.4666 99.1533 21.3311 99.0744C21.1968 98.9967 21.065 98.9077 20.9383 98.8125C20.8103 98.7148 20.6961 98.602 20.5957 98.4729C20.4953 98.3426 20.4137 98.1898 20.351 98.0144C20.2895 97.8402 20.2581 97.631 20.2581 97.3841C20.2581 97.1335 20.2945 96.9105 20.366 96.7138C20.4388 96.5171 20.5392 96.3517 20.6672 96.2189C20.7965 96.0861 20.9496 95.9833 21.1278 95.9144C21.3047 95.8443 21.4967 95.8092 21.7025 95.8092C21.8079 95.8092 21.9146 95.8217 22.0213 95.8443C22.1279 95.8681 22.2283 95.8981 22.3225 95.9382C22.4166 95.9758 22.5007 96.0209 22.5734 96.0685C22.6475 96.1161 22.6964 96.155 22.719 96.1838C22.7429 96.2139 22.7579 96.2364 22.7654 96.254C22.773 96.2715 22.7792 96.2928 22.783 96.3191C22.788 96.3454 22.7918 96.3768 22.7943 96.4143C22.7968 96.4519 22.7981 96.4996 22.7981 96.5584C22.7981 96.6136 22.7968 96.6624 22.7931 96.7075C22.7893 96.7501 22.783 96.7865 22.7767 96.8165C22.7692 96.8454 22.7579 96.8679 22.7454 96.8817C22.7316 96.8942 22.7165 96.9017 22.6989 96.9017C22.6726 96.9017 22.6299 96.8804 22.5722 96.8378C22.5145 96.7927 22.4442 96.7451 22.3614 96.69C22.2773 96.6361 22.1794 96.5873 22.0652 96.5422C21.951 96.4958 21.823 96.4745 21.6812 96.4745C21.5482 96.4745 21.4327 96.4958 21.3348 96.5422C21.237 96.5873 21.1566 96.6474 21.0926 96.7213C21.0286 96.794 20.981 96.883 20.9496 96.9869C20.917 97.0884 20.9006 97.1962 20.9006 97.3115C20.9006 97.4781 20.932 97.6222 20.9935 97.7425C21.055 97.864 21.1353 97.9718 21.2382 98.0632C21.3399 98.1572 21.4553 98.2424 21.5846 98.3188C21.7151 98.3965 21.8468 98.4742 21.9824 98.5531C22.1167 98.6333 22.2497 98.7198 22.3789 98.8137C22.5094 98.909 22.6249 99.0192 22.7265 99.1483C22.8282 99.2773 22.911 99.4289 22.9725 99.6031C23.0352 99.7798 23.0666 99.9852 23.0666 100.226ZM26.9016 96.2427C26.9016 96.3016 26.8991 96.3517 26.8941 96.3943C26.8891 96.4394 26.8816 96.4745 26.8703 96.4995C26.859 96.5259 26.8452 96.5459 26.8301 96.5584C26.8138 96.571 26.7962 96.5772 26.7762 96.5772H25.4384V101.791C25.4384 101.815 25.4334 101.837 25.4234 101.856C25.4133 101.875 25.397 101.888 25.3719 101.9C25.3481 101.911 25.3154 101.92 25.2753 101.927C25.2339 101.935 25.1837 101.94 25.1222 101.94C25.0632 101.94 25.013 101.935 24.9716 101.927C24.9302 101.92 24.8963 101.911 24.8724 101.9C24.8473 101.888 24.831 101.875 24.821 101.856C24.811 101.837 24.8059 101.815 24.8059 101.791V96.5772H23.4682C23.4481 96.5772 23.4305 96.571 23.4142 96.5584C23.3979 96.5459 23.3854 96.5259 23.3753 96.4995C23.3665 96.4745 23.3578 96.4394 23.3515 96.3943C23.3452 96.3517 23.3427 96.3016 23.3427 96.2427C23.3427 96.1838 23.3452 96.1312 23.3515 96.0873C23.3578 96.041 23.3665 96.0046 23.3753 95.9771C23.3854 95.9495 23.3979 95.9295 23.4142 95.9169C23.4305 95.9044 23.4481 95.8981 23.4682 95.8981H26.7762C26.7962 95.8981 26.8138 95.9044 26.8301 95.9169C26.8452 95.9295 26.859 95.9495 26.8703 95.9771C26.8816 96.0046 26.8891 96.041 26.8941 96.0873C26.8991 96.1312 26.9016 96.1838 26.9016 96.2427ZM30.5635 101.628C30.5823 101.696 30.5936 101.751 30.5961 101.792C30.5961 101.835 30.5861 101.867 30.5673 101.887C30.5484 101.91 30.5158 101.924 30.4694 101.93C30.4242 101.936 30.3652 101.94 30.2874 101.94C30.2121 101.94 30.1506 101.936 30.1067 101.932C30.0603 101.927 30.0264 101.92 30.0025 101.91C29.98 101.899 29.9624 101.882 29.9511 101.866C29.9398 101.846 29.9298 101.822 29.921 101.796L29.5119 100.331H27.5341L27.1438 101.777C27.1363 101.805 27.1263 101.828 27.115 101.848C27.1024 101.868 27.0849 101.886 27.061 101.9C27.0384 101.912 27.0046 101.924 26.9619 101.93C26.9192 101.936 26.864 101.94 26.795 101.94C26.7234 101.94 26.6657 101.935 26.6205 101.927C26.5754 101.92 26.5427 101.905 26.5252 101.882C26.5063 101.862 26.4976 101.831 26.4988 101.787C26.5001 101.746 26.5101 101.691 26.5302 101.623L28.1252 96.0385C28.1352 96.0034 28.1478 95.9758 28.1641 95.9545C28.1804 95.932 28.203 95.9157 28.2344 95.9031C28.2645 95.8906 28.3034 95.8818 28.3523 95.8781C28.4 95.8731 28.4615 95.8693 28.5343 95.8693C28.6121 95.8693 28.6774 95.8731 28.7288 95.8781C28.7803 95.8818 28.8217 95.8906 28.8543 95.9031C28.8857 95.9157 28.9095 95.9332 28.9271 95.957C28.9447 95.9796 28.9572 96.0084 28.9672 96.0422L30.5635 101.628ZM28.5155 96.6975H28.5117L27.6922 99.6958H29.3462L28.5155 96.6975ZM33.7522 96.2427C33.7522 96.3016 33.7497 96.3517 33.7447 96.3943C33.7397 96.4394 33.7322 96.4745 33.7209 96.4995C33.7096 96.5259 33.6958 96.5459 33.6807 96.5584C33.6644 96.571 33.6468 96.5772 33.6267 96.5772H32.2878V101.791C32.2878 101.815 32.2827 101.837 32.2727 101.856C32.2639 101.875 32.2476 101.888 32.2225 101.9C32.1974 101.911 32.1648 101.92 32.1259 101.927C32.0832 101.935 32.033 101.94 31.9728 101.94C31.9138 101.94 31.8623 101.935 31.8222 101.927C31.7808 101.92 31.7469 101.911 31.723 101.9C31.6967 101.888 31.6816 101.875 31.6703 101.856C31.6615 101.837 31.6553 101.815 31.6553 101.791V96.5772H30.3175C30.2975 96.5772 30.2799 96.571 30.2636 96.5584C30.2473 96.5459 30.2347 96.5259 30.2247 96.4995C30.2159 96.4745 30.2071 96.4394 30.2008 96.3943C30.1945 96.3517 30.1933 96.3016 30.1933 96.2427C30.1933 96.1838 30.1945 96.1312 30.2008 96.0873C30.2071 96.041 30.2159 96.0046 30.2247 95.9771C30.2347 95.9495 30.2473 95.9295 30.2636 95.9169C30.2799 95.9044 30.2975 95.8981 30.3175 95.8981H33.6267C33.6468 95.8981 33.6644 95.9044 33.6807 95.9169C33.6958 95.9295 33.7096 95.9495 33.7209 95.9771C33.7322 96.0046 33.7397 96.041 33.7447 96.0873C33.7497 96.1312 33.7522 96.1838 33.7522 96.2427ZM37.0866 101.582C37.0866 101.637 37.084 101.686 37.079 101.727C37.0753 101.771 37.0665 101.805 37.0539 101.832C37.0414 101.861 37.0276 101.88 37.0113 101.892C36.9962 101.905 36.9774 101.911 36.9585 101.911H34.6746C34.6181 101.911 34.5654 101.887 34.5152 101.84C34.465 101.791 34.4399 101.707 34.4399 101.587V96.2239C34.4399 96.1024 34.465 96.0184 34.5152 95.9696C34.5654 95.9219 34.6181 95.8981 34.6746 95.8981H36.9322C36.9523 95.8981 36.9698 95.9044 36.9862 95.9169C37.0012 95.9295 37.015 95.9495 37.0238 95.9771C37.0338 96.0046 37.0426 96.0397 37.0489 96.0823C37.0539 96.1237 37.0577 96.1763 37.0577 96.2377C37.0577 96.2928 37.0539 96.3429 37.0489 96.3843C37.0426 96.4269 37.0338 96.4595 37.0238 96.487C37.015 96.5121 37.0012 96.5309 36.9862 96.5434C36.9698 96.5572 36.9523 96.5635 36.9322 96.5635H35.0724V98.4491H36.6674C36.6875 98.4491 36.7051 98.4567 36.7214 98.4704C36.7364 98.4842 36.7502 98.5043 36.7615 98.5281C36.7728 98.5531 36.7804 98.587 36.7854 98.6308C36.7904 98.6734 36.7929 98.7248 36.7929 98.7837C36.7929 98.8388 36.7904 98.8877 36.7854 98.9278C36.7804 98.9691 36.7728 99.0004 36.7615 99.0255C36.7502 99.0493 36.7364 99.0693 36.7214 99.0781C36.7051 99.0894 36.6875 99.0957 36.6674 99.0957H35.0724V101.247H36.9585C36.9774 101.247 36.9962 101.253 37.0113 101.266C37.0276 101.278 37.0414 101.297 37.0539 101.323C37.0665 101.35 37.0753 101.384 37.079 101.426C37.084 101.467 37.0866 101.52 37.0866 101.582ZM40.451 101.791C40.451 101.815 40.446 101.837 40.4359 101.856C40.4259 101.875 40.4096 101.888 40.3845 101.9C40.3606 101.911 40.328 101.92 40.2866 101.927C40.2464 101.935 40.1962 101.94 40.1347 101.94C40.0758 101.94 40.0256 101.935 39.9842 101.927C39.9427 101.92 39.9089 101.911 39.885 101.9C39.8599 101.888 39.8424 101.875 39.8336 101.856C39.8235 101.837 39.8185 101.815 39.8185 101.791V96.0184C39.8185 95.9946 39.8235 95.9733 39.8348 95.9545C39.8461 95.9345 39.8649 95.9207 39.89 95.9094C39.9164 95.8981 39.949 95.8906 39.9892 95.8818C40.0293 95.8743 40.0783 95.8693 40.1347 95.8693C40.1962 95.8693 40.2464 95.8743 40.2866 95.8818C40.328 95.8906 40.3606 95.8981 40.3845 95.9094C40.4096 95.9207 40.4259 95.9345 40.4359 95.9545C40.446 95.9733 40.451 95.9946 40.451 96.0184V101.791ZM45.3113 101.582C45.3113 101.643 45.3037 101.696 45.2874 101.741C45.2711 101.783 45.251 101.818 45.2247 101.846C45.1996 101.875 45.1707 101.893 45.1381 101.906C45.1067 101.92 45.0753 101.926 45.0427 101.926H44.8407C44.7767 101.926 44.7215 101.916 44.6738 101.9C44.6261 101.882 44.5809 101.851 44.537 101.807C44.4943 101.762 44.4517 101.701 44.409 101.623C44.3663 101.546 44.3186 101.446 44.2672 101.326L42.7676 97.9066C42.6885 97.7287 42.6094 97.5445 42.5304 97.3516C42.4501 97.1561 42.376 96.9694 42.3083 96.7865H42.3007C42.3057 97.0082 42.3095 97.2375 42.312 97.4681C42.3133 97.7024 42.3145 97.9317 42.3145 98.1622V101.791C42.3145 101.811 42.3108 101.833 42.3007 101.852C42.2907 101.873 42.2744 101.888 42.2505 101.9C42.2279 101.911 42.1966 101.92 42.1589 101.927C42.1213 101.935 42.0723 101.94 42.0134 101.94C41.9544 101.94 41.9067 101.935 41.8678 101.927C41.8301 101.92 41.8 101.911 41.7787 101.9C41.7561 101.888 41.7398 101.873 41.731 101.852C41.721 101.833 41.7159 101.811 41.7159 101.791V96.2427C41.7159 96.1187 41.7423 96.0297 41.7963 95.9771C41.8502 95.9257 41.9092 95.8981 41.9732 95.8981H42.2744C42.3459 95.8981 42.4049 95.9057 42.4526 95.9219C42.5003 95.937 42.5442 95.9633 42.5818 95.9984C42.6195 96.0335 42.6559 96.0836 42.6923 96.1475C42.7274 96.2114 42.7663 96.2903 42.8077 96.3868L43.9622 99.0255C44.0338 99.1859 44.1015 99.3437 44.168 99.4979C44.2346 99.6507 44.2986 99.8023 44.3588 99.9514C44.4203 100.098 44.4818 100.246 44.5408 100.39C44.601 100.533 44.6612 100.679 44.719 100.823H44.7227C44.7177 100.579 44.7152 100.325 44.7139 100.06C44.7127 99.7961 44.7127 99.5405 44.7127 99.2961V96.0335C44.7127 96.0109 44.7177 95.9921 44.7265 95.9733C44.7365 95.9545 44.7528 95.9382 44.7767 95.9232C44.7993 95.9094 44.8306 95.8994 44.8683 95.8931C44.9059 95.8869 44.9561 95.8844 45.0176 95.8844C45.0716 95.8844 45.118 95.8869 45.1569 95.8931C45.1958 95.8994 45.2272 95.9094 45.2485 95.9232C45.2711 95.9382 45.2874 95.9545 45.2962 95.9733C45.3063 95.9921 45.3113 96.0109 45.3113 96.0335V101.582ZM48.4988 101.772C48.4887 101.807 48.4762 101.833 48.4586 101.856C48.441 101.878 48.4172 101.893 48.3871 101.906C48.3557 101.92 48.3168 101.927 48.2691 101.932C48.2214 101.936 48.1624 101.94 48.0909 101.94C48.037 101.94 47.9893 101.939 47.9491 101.936C47.909 101.935 47.8738 101.932 47.845 101.926C47.8148 101.92 47.7897 101.911 47.7697 101.905C47.7483 101.897 47.7308 101.886 47.7157 101.875C47.7006 101.862 47.6893 101.846 47.6806 101.831C47.6718 101.813 47.6642 101.792 47.6567 101.767L46.1019 96.1826C46.0818 96.1136 46.0718 96.0585 46.0705 96.0172C46.0692 95.9746 46.0793 95.9432 46.1019 95.9219C46.1245 95.8994 46.1596 95.8856 46.2085 95.8793C46.2575 95.8731 46.324 95.8693 46.4068 95.8693C46.4758 95.8693 46.5298 95.8731 46.5712 95.8781C46.6114 95.8818 46.6427 95.8906 46.6641 95.9031C46.6867 95.9157 46.703 95.932 46.7143 95.952C46.7256 95.9708 46.7356 95.9971 46.7456 96.0284L48.1097 101.088H48.1135L49.44 96.0385C49.4475 96.0034 49.4563 95.9758 49.4663 95.9545C49.4751 95.932 49.4927 95.9157 49.5178 95.9031C49.5416 95.8906 49.5767 95.8818 49.6207 95.8781C49.6646 95.8731 49.7236 95.8693 49.7963 95.8693C49.8729 95.8693 49.9331 95.8743 49.9771 95.8818C50.021 95.8906 50.0511 95.9044 50.0674 95.927C50.0825 95.947 50.0887 95.9796 50.085 96.0222C50.0812 96.0635 50.0699 96.1187 50.0498 96.1876L48.4988 101.772ZM53.4946 101.582C53.4946 101.637 53.4921 101.686 53.4871 101.727C53.4833 101.771 53.4745 101.805 53.462 101.832C53.4494 101.861 53.4356 101.88 53.4193 101.892C53.4042 101.905 53.3854 101.911 53.3666 101.911H51.0826C51.0262 101.911 50.9735 101.887 50.9233 101.84C50.8731 101.791 50.848 101.707 50.848 101.587V96.2239C50.848 96.1024 50.8731 96.0184 50.9233 95.9696C50.9735 95.9219 51.0262 95.8981 51.0826 95.8981H53.3402C53.3603 95.8981 53.3779 95.9044 53.3942 95.9169C53.4093 95.9295 53.4231 95.9495 53.4318 95.9771C53.4419 96.0046 53.4507 96.0397 53.4569 96.0823C53.462 96.1237 53.4657 96.1763 53.4657 96.2377C53.4657 96.2928 53.462 96.3429 53.4569 96.3843C53.4507 96.4269 53.4419 96.4595 53.4318 96.487C53.4231 96.5121 53.4093 96.5309 53.3942 96.5434C53.3779 96.5572 53.3603 96.5635 53.3402 96.5635H51.4804V98.4491H53.0754C53.0955 98.4491 53.1131 98.4567 53.1294 98.4704C53.1445 98.4842 53.1583 98.5043 53.1696 98.5281C53.1809 98.5531 53.1884 98.587 53.1934 98.6308C53.1984 98.6734 53.2009 98.7248 53.2009 98.7837C53.2009 98.8388 53.1984 98.8877 53.1934 98.9278C53.1884 98.9691 53.1809 99.0004 53.1696 99.0255C53.1583 99.0493 53.1445 99.0693 53.1294 99.0781C53.1131 99.0894 53.0955 99.0957 53.0754 99.0957H51.4804V101.247H53.3666C53.3854 101.247 53.4042 101.253 53.4193 101.266C53.4356 101.278 53.4494 101.297 53.462 101.323C53.4745 101.35 53.4833 101.384 53.4871 101.426C53.4921 101.467 53.4946 101.52 53.4946 101.582ZM57.0058 100.226C57.0058 100.506 56.9644 100.757 56.8829 100.978C56.8 101.198 56.6871 101.384 56.5403 101.536C56.3947 101.691 56.224 101.807 56.0258 101.882C55.8287 101.96 55.6166 102 55.3883 102C55.2289 102 55.0808 101.982 54.9453 101.947C54.8097 101.915 54.688 101.873 54.5813 101.822C54.4747 101.773 54.3856 101.723 54.3128 101.67C54.24 101.617 54.1898 101.571 54.1622 101.535C54.1333 101.498 54.1133 101.45 54.0995 101.392C54.0857 101.336 54.0794 101.26 54.0794 101.163C54.0794 101.094 54.0819 101.039 54.0869 100.993C54.0919 100.949 54.0995 100.912 54.1082 100.885C54.1183 100.856 54.1308 100.837 54.1459 100.826C54.1597 100.816 54.1773 100.811 54.1973 100.811C54.2312 100.811 54.2802 100.836 54.3417 100.889C54.4044 100.943 54.4847 100.999 54.5826 101.062C54.6817 101.123 54.7997 101.182 54.9377 101.236C55.0758 101.29 55.2364 101.316 55.4171 101.316C55.5552 101.316 55.6806 101.292 55.7948 101.247C55.909 101.201 56.0069 101.134 56.0885 101.05C56.1713 100.964 56.2341 100.86 56.278 100.736C56.3219 100.613 56.3445 100.471 56.3445 100.312C56.3445 100.143 56.3131 99.9965 56.2516 99.8762C56.1914 99.756 56.1098 99.6495 56.0094 99.558C55.909 99.4653 55.7948 99.3826 55.6656 99.3074C55.5376 99.231 55.4058 99.1533 55.2703 99.0744C55.136 98.9967 55.0042 98.9077 54.8775 98.8125C54.7495 98.7148 54.6353 98.602 54.5349 98.4729C54.4345 98.3426 54.3529 98.1898 54.2902 98.0144C54.2287 97.8402 54.1973 97.631 54.1973 97.3841C54.1973 97.1335 54.2337 96.9105 54.3053 96.7138C54.378 96.5171 54.4784 96.3517 54.6064 96.2189C54.7357 96.0861 54.8888 95.9833 55.067 95.9144C55.2439 95.8443 55.4359 95.8092 55.6418 95.8092C55.7472 95.8092 55.8538 95.8217 55.9605 95.8443C56.0672 95.8681 56.1676 95.8981 56.2617 95.9382C56.3558 95.9758 56.4399 96.0209 56.5127 96.0685C56.5867 96.1161 56.6356 96.155 56.6582 96.1838C56.6821 96.2139 56.6971 96.2364 56.7047 96.254C56.7122 96.2715 56.7185 96.2928 56.7222 96.3191C56.7273 96.3454 56.731 96.3768 56.7335 96.4143C56.736 96.4519 56.7373 96.4996 56.7373 96.5584C56.7373 96.6136 56.736 96.6624 56.7323 96.7075C56.7285 96.7501 56.7222 96.7865 56.716 96.8165C56.7084 96.8454 56.6971 96.8679 56.6846 96.8817C56.6708 96.8942 56.6557 96.9017 56.6381 96.9017C56.6118 96.9017 56.5691 96.8804 56.5114 96.8378C56.4537 96.7927 56.3834 96.7451 56.3006 96.69C56.2165 96.6361 56.1186 96.5873 56.0044 96.5422C55.8902 96.4958 55.7622 96.4745 55.6204 96.4745C55.4874 96.4745 55.3719 96.4958 55.2741 96.5422C55.1762 96.5873 55.0959 96.6474 55.0319 96.7213C54.9679 96.794 54.9202 96.883 54.8888 96.9869C54.8562 97.0884 54.8399 97.1962 54.8399 97.3115C54.8399 97.4781 54.8712 97.6222 54.9327 97.7425C54.9942 97.864 55.0745 97.9718 55.1774 98.0632C55.2791 98.1572 55.3945 98.2424 55.5238 98.3188C55.6543 98.3965 55.7861 98.4742 55.9216 98.5531C56.0559 98.6333 56.1889 98.7198 56.3181 98.8137C56.4487 98.909 56.5641 99.0192 56.6658 99.1483C56.7674 99.2773 56.8502 99.4289 56.9117 99.6031C56.9745 99.7798 57.0058 99.9852 57.0058 100.226Z" fill="white"/>
<path d="M60.8409 96.2427C60.8409 96.3016 60.8384 96.3517 60.8333 96.3943C60.8283 96.4394 60.8208 96.4745 60.8095 96.4995C60.7982 96.5259 60.7844 96.5459 60.7693 96.5584C60.753 96.571 60.7355 96.5772 60.7154 96.5772H59.3776V101.791C59.3776 101.815 59.3726 101.837 59.3626 101.856C59.3525 101.875 59.3362 101.888 59.3111 101.9C59.2873 101.911 59.2546 101.92 59.2145 101.927C59.1731 101.935 59.1229 101.94 59.0614 101.94C59.0024 101.94 58.9522 101.935 58.9108 101.927C58.8694 101.92 58.8355 101.911 58.8117 101.9C58.7866 101.888 58.7703 101.875 58.7602 101.856C58.7502 101.837 58.7452 101.815 58.7452 101.791V96.5772H57.4074C57.3873 96.5772 57.3698 96.571 57.3535 96.5584C57.3371 96.5459 57.3246 96.5259 57.3146 96.4995C57.3058 96.4745 57.297 96.4394 57.2907 96.3943C57.2844 96.3517 57.2819 96.3016 57.2819 96.2427C57.2819 96.1838 57.2844 96.1312 57.2907 96.0873C57.297 96.041 57.3058 96.0046 57.3146 95.9771C57.3246 95.9495 57.3371 95.9295 57.3535 95.9169C57.3698 95.9044 57.3873 95.8981 57.4074 95.8981H60.7154C60.7355 95.8981 60.753 95.9044 60.7693 95.9169C60.7844 95.9295 60.7982 95.9495 60.8095 95.9771C60.8208 96.0046 60.8283 96.041 60.8333 96.0873C60.8384 96.1312 60.8409 96.1838 60.8409 96.2427ZM66.7013 101.791C66.7013 101.815 66.6976 101.837 66.6875 101.856C66.6775 101.875 66.6612 101.888 66.6361 101.9C66.6122 101.911 66.5809 101.92 66.5432 101.927C66.5043 101.935 66.4541 101.94 66.3939 101.94C66.3374 101.94 66.2872 101.935 66.2471 101.927C66.2081 101.92 66.1768 101.911 66.1529 101.9C66.1291 101.888 66.1128 101.875 66.1015 101.856C66.0939 101.837 66.0889 101.815 66.0889 101.791V96.5534H66.0801L64.386 101.813C64.3772 101.835 64.3672 101.855 64.3534 101.87C64.3408 101.885 64.322 101.899 64.2956 101.91C64.2706 101.92 64.2392 101.927 64.2028 101.932C64.1689 101.936 64.125 101.94 64.0773 101.94C64.0246 101.94 63.9819 101.936 63.9443 101.93C63.9079 101.924 63.8765 101.915 63.8514 101.905C63.8276 101.893 63.81 101.88 63.7949 101.866C63.7811 101.85 63.7736 101.832 63.7673 101.813L62.146 96.5534H62.1422V101.791C62.1422 101.815 62.1372 101.837 62.1272 101.856C62.1184 101.875 62.1008 101.888 62.0757 101.9C62.0519 101.911 62.0205 101.92 61.9803 101.927C61.9414 101.935 61.8912 101.94 61.8297 101.94C61.7708 101.94 61.7218 101.935 61.6829 101.927C61.644 101.92 61.6126 101.911 61.5888 101.9C61.5662 101.888 61.5499 101.875 61.5411 101.856C61.5323 101.837 61.5286 101.815 61.5286 101.791V96.2602C61.5286 96.1299 61.5549 96.0385 61.6089 95.9821C61.6628 95.927 61.7231 95.8981 61.7896 95.8981H62.1723C62.2501 95.8981 62.3192 95.9082 62.3781 95.927C62.4371 95.9445 62.4886 95.9746 62.5325 96.0147C62.5764 96.056 62.6128 96.1061 62.6442 96.1675C62.6718 96.2302 62.6981 96.3028 62.7195 96.3868L64.0986 100.741H64.1162L65.5506 96.3993C65.5769 96.3078 65.607 96.2277 65.6397 96.1638C65.671 96.0986 65.7074 96.046 65.7438 96.0084C65.7827 95.9683 65.8254 95.9407 65.8718 95.9232C65.917 95.9057 65.9722 95.8981 66.0337 95.8981H66.434C66.4704 95.8981 66.5056 95.9044 66.5394 95.9194C66.5721 95.9332 66.5997 95.9558 66.6235 95.9833C66.6474 96.0147 66.6662 96.051 66.68 96.0948C66.695 96.1412 66.7013 96.1951 66.7013 96.2602V101.791ZM70.6142 101.582C70.6142 101.637 70.6116 101.686 70.6066 101.727C70.6029 101.771 70.5941 101.805 70.5815 101.832C70.569 101.861 70.5552 101.88 70.5389 101.892C70.5238 101.905 70.505 101.911 70.4862 101.911H68.2022C68.1457 101.911 68.093 101.887 68.0428 101.84C67.9926 101.791 67.9675 101.707 67.9675 101.587V96.2239C67.9675 96.1024 67.9926 96.0184 68.0428 95.9696C68.093 95.9219 68.1457 95.8981 68.2022 95.8981H70.4598C70.4799 95.8981 70.4975 95.9044 70.5138 95.9169C70.5288 95.9295 70.5426 95.9495 70.5514 95.9771C70.5615 96.0046 70.5702 96.0397 70.5765 96.0823C70.5815 96.1237 70.5853 96.1763 70.5853 96.2377C70.5853 96.2928 70.5815 96.3429 70.5765 96.3843C70.5702 96.4269 70.5615 96.4595 70.5514 96.487C70.5426 96.5121 70.5288 96.5309 70.5138 96.5434C70.4975 96.5572 70.4799 96.5635 70.4598 96.5635H68.6V98.4491H70.195C70.2151 98.4491 70.2327 98.4567 70.249 98.4704C70.264 98.4842 70.2778 98.5043 70.2891 98.5281C70.3004 98.5531 70.308 98.587 70.313 98.6308C70.318 98.6734 70.3205 98.7248 70.3205 98.7837C70.3205 98.8388 70.318 98.8877 70.313 98.9278C70.308 98.9691 70.3004 99.0004 70.2891 99.0255C70.2778 99.0493 70.264 99.0693 70.249 99.0781C70.2327 99.0894 70.2151 99.0957 70.195 99.0957H68.6V101.247H70.4862C70.505 101.247 70.5238 101.253 70.5389 101.266C70.5552 101.278 70.569 101.297 70.5815 101.323C70.5941 101.35 70.6029 101.384 70.6066 101.426C70.6116 101.467 70.6142 101.52 70.6142 101.582ZM75.2398 101.582C75.2398 101.643 75.2323 101.696 75.2159 101.741C75.1996 101.783 75.1795 101.818 75.1532 101.846C75.1281 101.875 75.0992 101.893 75.0666 101.906C75.0352 101.92 75.0039 101.926 74.9712 101.926H74.7692C74.7052 101.926 74.65 101.916 74.6023 101.9C74.5546 101.882 74.5094 101.851 74.4655 101.807C74.4228 101.762 74.3802 101.701 74.3375 101.623C74.2948 101.546 74.2471 101.446 74.1957 101.326L72.6961 97.9066C72.617 97.7287 72.5379 97.5445 72.4589 97.3516C72.3786 97.1561 72.3045 96.9694 72.2368 96.7865H72.2292C72.2343 97.0082 72.238 97.2375 72.2405 97.4681C72.2418 97.7024 72.243 97.9317 72.243 98.1622V101.791C72.243 101.811 72.2393 101.833 72.2292 101.852C72.2192 101.873 72.2029 101.888 72.179 101.9C72.1564 101.911 72.1251 101.92 72.0874 101.927C72.0498 101.935 72.0008 101.94 71.9419 101.94C71.8829 101.94 71.8352 101.935 71.7963 101.927C71.7586 101.92 71.7285 101.911 71.7072 101.9C71.6846 101.888 71.6683 101.873 71.6595 101.852C71.6495 101.833 71.6444 101.811 71.6444 101.791V96.2427C71.6444 96.1187 71.6708 96.0297 71.7248 95.9771C71.7787 95.9257 71.8377 95.8981 71.9017 95.8981H72.2029C72.2744 95.8981 72.3334 95.9057 72.3811 95.9219C72.4288 95.937 72.4727 95.9633 72.5103 95.9984C72.548 96.0335 72.5844 96.0836 72.6208 96.1475C72.6559 96.2114 72.6948 96.2903 72.7362 96.3868L73.8907 99.0255C73.9623 99.1859 74.03 99.3437 74.0966 99.4979C74.1631 99.6507 74.2271 99.8023 74.2873 99.9514C74.3488 100.098 74.4103 100.246 74.4693 100.39C74.5295 100.533 74.5897 100.679 74.6475 100.823H74.6512C74.6462 100.579 74.6437 100.325 74.6424 100.06C74.6412 99.7961 74.6412 99.5405 74.6412 99.2961V96.0335C74.6412 96.0109 74.6462 95.9921 74.655 95.9733C74.665 95.9545 74.6813 95.9382 74.7052 95.9232C74.7278 95.9094 74.7591 95.8994 74.7968 95.8931C74.8344 95.8869 74.8846 95.8844 74.9461 95.8844C75.0001 95.8844 75.0465 95.8869 75.0854 95.8931C75.1243 95.8994 75.1557 95.9094 75.177 95.9232C75.1996 95.9382 75.2159 95.9545 75.2247 95.9733C75.2348 95.9921 75.2398 96.0109 75.2398 96.0335V101.582ZM79.4864 96.2427C79.4864 96.3016 79.4839 96.3517 79.4789 96.3943C79.4739 96.4394 79.4663 96.4745 79.455 96.4995C79.4438 96.5259 79.4299 96.5459 79.4149 96.5584C79.3986 96.571 79.381 96.5772 79.3609 96.5772H78.0232V101.791C78.0232 101.815 78.0182 101.837 78.0081 101.856C77.9981 101.875 77.9818 101.888 77.9567 101.9C77.9328 101.911 77.9002 101.92 77.86 101.927C77.8186 101.935 77.7684 101.94 77.7069 101.94C77.648 101.94 77.5978 101.935 77.5564 101.927C77.5149 101.92 77.4811 101.911 77.4572 101.9C77.4321 101.888 77.4158 101.875 77.4058 101.856C77.3957 101.837 77.3907 101.815 77.3907 101.791V96.5772H76.053C76.0329 96.5772 76.0153 96.571 75.999 96.5584C75.9827 96.5459 75.9701 96.5259 75.9601 96.4995C75.9513 96.4745 75.9425 96.4394 75.9363 96.3943C75.93 96.3517 75.9275 96.3016 75.9275 96.2427C75.9275 96.1838 75.93 96.1312 75.9363 96.0873C75.9425 96.041 75.9513 96.0046 75.9601 95.9771C75.9701 95.9495 75.9827 95.9295 75.999 95.9169C76.0153 95.9044 76.0329 95.8981 76.053 95.8981H79.3609C79.381 95.8981 79.3986 95.9044 79.4149 95.9169C79.4299 95.9295 79.4438 95.9495 79.455 95.9771C79.4663 96.0046 79.4739 96.041 79.4789 96.0873C79.4839 96.1312 79.4864 96.1838 79.4864 96.2427ZM85.4385 101.628C85.4573 101.696 85.4686 101.751 85.4699 101.792C85.4711 101.835 85.4611 101.867 85.4422 101.887C85.4222 101.91 85.3895 101.924 85.3444 101.93C85.2992 101.936 85.239 101.94 85.1624 101.94C85.0871 101.94 85.0256 101.936 84.9804 101.932C84.9353 101.927 84.9014 101.92 84.8775 101.91C84.8537 101.899 84.8374 101.882 84.8261 101.866C84.8148 101.846 84.8048 101.822 84.7947 101.796L84.3869 100.331H82.4091L82.0188 101.777C82.0113 101.805 82.0013 101.828 81.99 101.848C81.9774 101.868 81.9599 101.886 81.936 101.9C81.9134 101.912 81.8795 101.924 81.8369 101.93C81.7942 101.936 81.739 101.94 81.67 101.94C81.5984 101.94 81.5407 101.935 81.4955 101.927C81.4504 101.92 81.4177 101.905 81.4002 101.882C81.3813 101.862 81.3726 101.831 81.3738 101.787C81.3751 101.746 81.3851 101.691 81.4052 101.623L83.0002 96.0385C83.0102 96.0034 83.0228 95.9758 83.0391 95.9545C83.0554 95.932 83.078 95.9157 83.1094 95.9031C83.1395 95.8906 83.1784 95.8818 83.2273 95.8781C83.275 95.8731 83.3352 95.8693 83.4093 95.8693C83.4871 95.8693 83.5524 95.8731 83.6038 95.8781C83.6553 95.8818 83.6967 95.8906 83.728 95.9031C83.7607 95.9157 83.7845 95.9332 83.8021 95.957C83.8196 95.9796 83.8322 96.0084 83.8422 96.0422L85.4385 101.628ZM83.3905 96.6975H83.3867L82.5672 99.6958H84.2212L83.3905 96.6975ZM89.8909 98.8162C89.8909 99.3375 89.8382 99.7923 89.7328 100.181C89.6274 100.569 89.473 100.891 89.271 101.147C89.069 101.402 88.8205 101.594 88.5268 101.721C88.2332 101.848 87.8818 101.911 87.4752 101.911H86.4675C86.4111 101.911 86.3583 101.887 86.3081 101.84C86.2579 101.791 86.2328 101.707 86.2328 101.587V96.2239C86.2328 96.1024 86.2579 96.0184 86.3081 95.9696C86.3583 95.9219 86.4111 95.8981 86.4675 95.8981H87.5455C87.9571 95.8981 88.3047 95.9645 88.5896 96.0999C88.8732 96.2352 89.1116 96.4281 89.3049 96.6812C89.4969 96.9343 89.6425 97.24 89.7416 97.5984C89.8407 97.9592 89.8909 98.3652 89.8909 98.8162ZM89.2258 98.8488C89.2258 98.5231 89.1932 98.2198 89.1305 97.9417C89.0665 97.661 88.9661 97.418 88.8305 97.2137C88.6937 97.0082 88.5218 96.8504 88.3135 96.7338C88.1052 96.6198 87.8366 96.5635 87.5091 96.5635H86.8653V101.242H87.5154C87.8203 101.242 88.0763 101.194 88.2846 101.098C88.493 101.003 88.6661 100.855 88.8067 100.657C88.946 100.459 89.0514 100.21 89.1204 99.9113C89.1907 99.6119 89.2258 99.2573 89.2258 98.8488ZM92.6994 101.772C92.6894 101.807 92.6768 101.833 92.6593 101.856C92.6417 101.878 92.6179 101.893 92.5877 101.906C92.5564 101.92 92.5175 101.927 92.4698 101.932C92.4221 101.936 92.3631 101.94 92.2916 101.94C92.2376 101.94 92.1899 101.939 92.1498 101.936C92.1096 101.935 92.0745 101.932 92.0456 101.926C92.0155 101.92 91.9904 101.911 91.9703 101.905C91.949 101.897 91.9314 101.886 91.9164 101.875C91.9013 101.862 91.89 101.846 91.8812 101.831C91.8724 101.813 91.8649 101.792 91.8574 101.767L90.3025 96.1826C90.2825 96.1136 90.2724 96.0585 90.2712 96.0172C90.2699 95.9746 90.28 95.9432 90.3025 95.9219C90.3251 95.8994 90.3603 95.8856 90.4092 95.8793C90.4582 95.8731 90.5247 95.8693 90.6075 95.8693C90.6765 95.8693 90.7305 95.8731 90.7719 95.8781C90.812 95.8818 90.8434 95.8906 90.8647 95.9031C90.8873 95.9157 90.9036 95.932 90.9149 95.952C90.9262 95.9708 90.9363 95.9971 90.9463 96.0284L92.3104 101.088H92.3142L93.6406 96.0385C93.6482 96.0034 93.6569 95.9758 93.667 95.9545C93.6758 95.932 93.6933 95.9157 93.7184 95.9031C93.7423 95.8906 93.7774 95.8818 93.8213 95.8781C93.8653 95.8731 93.9242 95.8693 93.997 95.8693C94.0736 95.8693 94.1338 95.8743 94.1777 95.8818C94.2216 95.8906 94.253 95.9044 94.2681 95.927C94.2831 95.947 94.2894 95.9796 94.2857 96.0222C94.2819 96.0635 94.2706 96.1187 94.2505 96.1876L92.6994 101.772ZM95.6811 101.791C95.6811 101.815 95.6761 101.837 95.6673 101.856C95.656 101.875 95.6397 101.888 95.6146 101.9C95.592 101.911 95.5581 101.92 95.5167 101.927C95.4766 101.935 95.4264 101.94 95.3649 101.94C95.3072 101.94 95.2557 101.935 95.2143 101.927C95.1729 101.92 95.139 101.911 95.1152 101.9C95.09 101.888 95.0725 101.875 95.0637 101.856C95.0537 101.837 95.0486 101.815 95.0486 101.791V96.0184C95.0486 95.9946 95.0537 95.9733 95.0649 95.9545C95.0762 95.9345 95.0951 95.9207 95.1214 95.9094C95.1478 95.8981 95.1792 95.8906 95.2193 95.8818C95.2595 95.8743 95.3097 95.8693 95.3649 95.8693C95.4264 95.8693 95.4766 95.8743 95.5167 95.8818C95.5581 95.8906 95.592 95.8981 95.6146 95.9094C95.6397 95.9207 95.656 95.9345 95.6673 95.9545C95.6761 95.9733 95.6811 95.9946 95.6811 96.0184V101.791ZM99.5023 100.226C99.5023 100.506 99.4609 100.757 99.3794 100.978C99.2965 101.198 99.1836 101.384 99.0368 101.536C98.8912 101.691 98.7205 101.807 98.5223 101.882C98.324 101.96 98.1131 102 97.8835 102C97.7241 102 97.576 101.982 97.4418 101.947C97.3062 101.915 97.1845 101.873 97.0766 101.822C96.9712 101.773 96.8808 101.723 96.808 101.67C96.7365 101.617 96.685 101.571 96.6587 101.535C96.6298 101.498 96.6085 101.45 96.5947 101.392C96.5809 101.336 96.5759 101.26 96.5759 101.163C96.5759 101.094 96.5784 101.039 96.5834 100.993C96.5872 100.949 96.5947 100.912 96.6035 100.885C96.6135 100.856 96.6261 100.837 96.6411 100.826C96.6562 100.816 96.6725 100.811 96.6938 100.811C96.7265 100.811 96.7754 100.836 96.8381 100.889C96.9009 100.943 96.98 100.999 97.0791 101.062C97.1782 101.123 97.2962 101.182 97.4342 101.236C97.571 101.29 97.7329 101.316 97.9136 101.316C98.0517 101.316 98.1771 101.292 98.2913 101.247C98.4043 101.201 98.5022 101.134 98.585 101.05C98.6678 100.964 98.7306 100.86 98.7732 100.736C98.8184 100.613 98.841 100.471 98.841 100.312C98.841 100.143 98.8096 99.9965 98.7481 99.8762C98.6866 99.756 98.6063 99.6495 98.5059 99.558C98.4043 99.4653 98.2913 99.3826 98.1621 99.3074C98.0341 99.231 97.9023 99.1533 97.7668 99.0744C97.6325 98.9967 97.5007 98.9077 97.374 98.8125C97.2447 98.7148 97.1318 98.602 97.0302 98.4729C96.931 98.3426 96.8494 98.1898 96.7854 98.0144C96.724 97.8402 96.6938 97.631 96.6938 97.3841C96.6938 97.1335 96.729 96.9105 96.8005 96.7138C96.8745 96.5171 96.9737 96.3517 97.1029 96.2189C97.2322 96.0861 97.3853 95.9833 97.5635 95.9144C97.7404 95.8443 97.9312 95.8092 98.1382 95.8092C98.2437 95.8092 98.3503 95.8217 98.457 95.8443C98.5637 95.8681 98.6628 95.8981 98.7569 95.9382C98.8523 95.9758 98.9364 96.0209 99.0092 96.0685C99.0832 96.1161 99.1309 96.155 99.1547 96.1838C99.1786 96.2139 99.1936 96.2364 99.2012 96.254C99.2087 96.2715 99.215 96.2928 99.2187 96.3191C99.2237 96.3454 99.2275 96.3768 99.23 96.4143C99.2325 96.4519 99.2325 96.4996 99.2325 96.5584C99.2325 96.6136 99.2325 96.6624 99.2275 96.7075C99.225 96.7501 99.2187 96.7865 99.2112 96.8165C99.2049 96.8454 99.1936 96.8679 99.1811 96.8817C99.1673 96.8942 99.1522 96.9017 99.1346 96.9017C99.1083 96.9017 99.0656 96.8804 99.0079 96.8378C98.9502 96.7927 98.8799 96.7451 98.7971 96.69C98.713 96.6361 98.6151 96.5873 98.5009 96.5422C98.3855 96.4958 98.2587 96.4745 98.1169 96.4745C97.9839 96.4745 97.8672 96.4958 97.7705 96.5422C97.6714 96.5873 97.5911 96.6474 97.5284 96.7213C97.4631 96.794 97.4154 96.883 97.3853 96.9869C97.3514 97.0884 97.3351 97.1962 97.3351 97.3115C97.3351 97.4781 97.3665 97.6222 97.428 97.7425C97.4907 97.864 97.571 97.9718 97.6739 98.0632C97.7756 98.1572 97.891 98.2424 98.0203 98.3188C98.1495 98.3965 98.2826 98.4742 98.4181 98.5531C98.5524 98.6333 98.6841 98.7198 98.8146 98.8137C98.9452 98.909 99.0606 99.0192 99.1623 99.1483C99.2639 99.2773 99.3467 99.4289 99.4082 99.6031C99.471 99.7798 99.5023 99.9852 99.5023 100.226ZM104.393 98.8363C104.393 99.3212 104.348 99.761 104.256 100.151C104.166 100.54 104.03 100.872 103.851 101.147C103.67 101.421 103.444 101.632 103.172 101.779C102.899 101.926 102.582 102 102.219 102C101.862 102 101.553 101.932 101.292 101.797C101.03 101.663 100.815 101.467 100.644 101.211C100.474 100.954 100.347 100.633 100.264 100.252C100.18 99.8712 100.139 99.4327 100.139 98.9378C100.139 98.4629 100.184 98.0332 100.274 97.646C100.366 97.2576 100.501 96.9293 100.683 96.6587C100.864 96.3868 101.091 96.1775 101.363 96.0297C101.634 95.8844 101.952 95.8092 102.315 95.8092C102.666 95.8092 102.971 95.8756 103.231 96.0096C103.49 96.1425 103.706 96.3379 103.879 96.5935C104.053 96.8479 104.181 97.1636 104.266 97.542C104.35 97.9179 104.393 98.3489 104.393 98.8363ZM103.726 98.8914C103.726 98.5506 103.703 98.2336 103.655 97.9417C103.607 97.6473 103.528 97.3942 103.416 97.1786C103.305 96.9631 103.155 96.794 102.97 96.6737C102.783 96.5534 102.553 96.4933 102.278 96.4933C102.003 96.4933 101.774 96.5584 101.587 96.6887C101.401 96.8178 101.249 96.9907 101.134 97.2087C101.017 97.4255 100.933 97.6798 100.883 97.968C100.833 98.2587 100.807 98.5632 100.807 98.8814C100.807 99.2335 100.831 99.5605 100.878 99.8574C100.924 100.156 101.003 100.411 101.112 100.627C101.223 100.842 101.371 101.009 101.555 101.128C101.741 101.248 101.973 101.307 102.253 101.307C102.529 101.307 102.763 101.242 102.951 101.112C103.14 100.981 103.292 100.806 103.408 100.585C103.522 100.364 103.605 100.107 103.654 99.8161C103.703 99.5242 103.726 99.2159 103.726 98.8914ZM108.565 101.791C108.565 101.815 108.562 101.837 108.554 101.856C108.548 101.875 108.531 101.888 108.506 101.902C108.483 101.915 108.447 101.924 108.403 101.93C108.36 101.936 108.301 101.94 108.228 101.94C108.164 101.94 108.111 101.936 108.071 101.93C108.031 101.924 107.998 101.912 107.974 101.9C107.949 101.886 107.93 101.867 107.917 101.842C107.903 101.816 107.891 101.786 107.881 101.748L107.445 100.331C107.393 100.169 107.339 100.022 107.284 99.8875C107.229 99.7522 107.164 99.6369 107.087 99.5379C107.012 99.4415 106.923 99.365 106.82 99.3112C106.717 99.2573 106.593 99.231 106.448 99.231H106.025V101.791C106.025 101.815 106.019 101.837 106.009 101.856C105.998 101.875 105.98 101.888 105.958 101.9C105.934 101.911 105.902 101.92 105.861 101.927C105.821 101.935 105.771 101.94 105.709 101.94C105.648 101.94 105.597 101.935 105.556 101.927C105.516 101.92 105.483 101.911 105.459 101.9C105.434 101.888 105.417 101.875 105.408 101.856C105.398 101.837 105.393 101.815 105.393 101.791V96.2239C105.393 96.1024 105.418 96.0184 105.468 95.9696C105.518 95.9219 105.571 95.8981 105.628 95.8981H106.639C106.76 95.8981 106.859 95.9019 106.939 95.9094C107.018 95.9169 107.09 95.927 107.154 95.9345C107.338 95.9758 107.5 96.0397 107.64 96.1262C107.782 96.2126 107.9 96.3229 107.996 96.457C108.091 96.5898 108.163 96.7426 108.211 96.913C108.259 97.0859 108.283 97.2751 108.283 97.4831C108.283 97.6848 108.262 97.8653 108.218 98.0244C108.175 98.1835 108.114 98.3251 108.032 98.4466C107.952 98.5694 107.855 98.6759 107.742 98.7661C107.629 98.8551 107.504 98.9315 107.363 98.9929C107.442 99.0355 107.512 99.0906 107.576 99.1583C107.64 99.2247 107.699 99.3036 107.755 99.3976C107.81 99.4903 107.863 99.5968 107.912 99.7171C107.96 99.8387 108.009 99.974 108.058 100.127L108.485 101.451C108.519 101.563 108.542 101.642 108.552 101.686C108.56 101.731 108.565 101.766 108.565 101.791ZM107.613 97.5671C107.613 97.3303 107.571 97.1323 107.489 96.9694C107.405 96.8078 107.265 96.69 107.069 96.6186C107.008 96.596 106.939 96.5822 106.861 96.5722C106.785 96.5635 106.683 96.5584 106.559 96.5584H106.025V98.5832H106.643C106.81 98.5832 106.954 98.5581 107.075 98.508C107.196 98.4567 107.297 98.3852 107.378 98.2938C107.459 98.2023 107.519 98.0946 107.556 97.9718C107.594 97.8465 107.613 97.7124 107.613 97.5671ZM110.889 99.573V101.791C110.889 101.815 110.884 101.837 110.874 101.856C110.864 101.875 110.848 101.888 110.823 101.9C110.799 101.911 110.765 101.92 110.724 101.927C110.682 101.935 110.632 101.94 110.573 101.94C110.512 101.94 110.462 101.935 110.42 101.927C110.38 101.92 110.347 101.911 110.321 101.9C110.296 101.888 110.278 101.875 110.268 101.856C110.258 101.837 110.253 101.815 110.253 101.791V99.573L108.908 96.1826C108.88 96.1111 108.864 96.056 108.858 96.0147C108.851 95.9746 108.858 95.9432 108.877 95.9219C108.895 95.8994 108.928 95.8856 108.976 95.8793C109.023 95.8731 109.087 95.8693 109.169 95.8693C109.242 95.8693 109.302 95.8731 109.347 95.8793C109.392 95.8856 109.429 95.8956 109.455 95.9044C109.483 95.9157 109.503 95.932 109.517 95.952C109.529 95.9708 109.543 95.9971 109.554 96.0284L110.213 97.7575C110.275 97.9204 110.335 98.0933 110.396 98.2725C110.458 98.4516 110.521 98.6346 110.585 98.8162H110.592C110.647 98.6396 110.706 98.4642 110.766 98.2888C110.827 98.1146 110.887 97.9417 110.948 97.7713L111.61 96.0335C111.617 96.0009 111.627 95.9758 111.641 95.9545C111.655 95.932 111.673 95.9157 111.696 95.9044C111.719 95.8956 111.752 95.8856 111.794 95.8793C111.836 95.8731 111.888 95.8693 111.952 95.8693C112.04 95.8693 112.109 95.8743 112.159 95.8818C112.21 95.8906 112.245 95.9044 112.265 95.927C112.284 95.947 112.291 95.9796 112.285 96.0184C112.279 96.0598 112.262 96.1136 112.235 96.1826L110.889 99.573ZM117.297 100.226C117.297 100.506 117.256 100.757 117.174 100.978C117.091 101.198 116.978 101.384 116.831 101.536C116.686 101.691 116.515 101.807 116.317 101.882C116.12 101.96 115.908 102 115.679 102C115.52 102 115.372 101.982 115.236 101.947C115.101 101.915 114.979 101.873 114.873 101.822C114.766 101.773 114.677 101.723 114.604 101.67C114.531 101.617 114.481 101.571 114.453 101.535C114.425 101.498 114.404 101.45 114.391 101.392C114.377 101.336 114.371 101.26 114.371 101.163C114.371 101.094 114.373 101.039 114.378 100.993C114.383 100.949 114.391 100.912 114.399 100.885C114.409 100.856 114.422 100.837 114.437 100.826C114.451 100.816 114.468 100.811 114.489 100.811C114.522 100.811 114.571 100.836 114.633 100.889C114.696 100.943 114.776 100.999 114.874 101.062C114.973 101.123 115.091 101.182 115.229 101.236C115.367 101.29 115.528 101.316 115.708 101.316C115.846 101.316 115.972 101.292 116.086 101.247C116.2 101.201 116.298 101.134 116.38 101.05C116.463 100.964 116.525 100.86 116.569 100.736C116.613 100.613 116.636 100.471 116.636 100.312C116.636 100.143 116.604 99.9965 116.543 99.8762C116.483 99.756 116.401 99.6495 116.301 99.558C116.2 99.4653 116.086 99.3826 115.957 99.3074C115.829 99.231 115.697 99.1533 115.562 99.0744C115.427 98.9967 115.295 98.9077 115.169 98.8125C115.041 98.7148 114.927 98.602 114.826 98.4729C114.726 98.3426 114.644 98.1898 114.581 98.0144C114.52 97.8402 114.489 97.631 114.489 97.3841C114.489 97.1335 114.525 96.9105 114.596 96.7138C114.669 96.5171 114.77 96.3517 114.898 96.2189C115.027 96.0861 115.18 95.9833 115.358 95.9144C115.535 95.8443 115.727 95.8092 115.933 95.8092C116.038 95.8092 116.145 95.8217 116.252 95.8443C116.358 95.8681 116.459 95.8981 116.553 95.9382C116.647 95.9758 116.731 96.0209 116.804 96.0685C116.878 96.1161 116.927 96.155 116.949 96.1838C116.973 96.2139 116.988 96.2364 116.996 96.254C117.003 96.2715 117.01 96.2928 117.013 96.3191C117.018 96.3454 117.022 96.3768 117.025 96.4143C117.027 96.4519 117.029 96.4996 117.029 96.5584C117.029 96.6136 117.027 96.6624 117.023 96.7075C117.02 96.7501 117.013 96.7865 117.007 96.8165C117 96.8454 116.988 96.8679 116.976 96.8817C116.962 96.8942 116.947 96.9017 116.929 96.9017C116.903 96.9017 116.86 96.8804 116.803 96.8378C116.745 96.7927 116.675 96.7451 116.592 96.69C116.508 96.6361 116.41 96.5873 116.296 96.5422C116.181 96.4958 116.053 96.4745 115.912 96.4745C115.779 96.4745 115.663 96.4958 115.565 96.5422C115.467 96.5873 115.387 96.6474 115.323 96.7213C115.259 96.794 115.211 96.883 115.18 96.9869C115.147 97.0884 115.131 97.1962 115.131 97.3115C115.131 97.4781 115.162 97.6222 115.224 97.7425C115.285 97.864 115.366 97.9718 115.469 98.0632C115.57 98.1572 115.686 98.2424 115.815 98.3188C115.946 98.3965 116.077 98.4742 116.213 98.5531C116.347 98.6333 116.48 98.7198 116.609 98.8137C116.74 98.909 116.855 99.0192 116.957 99.1483C117.059 99.2773 117.141 99.4289 117.203 99.6031C117.266 99.7798 117.297 99.9852 117.297 100.226Z" fill="white"/>
<path d="M120.848 101.582C120.848 101.637 120.846 101.686 120.841 101.727C120.837 101.771 120.828 101.805 120.816 101.832C120.803 101.861 120.789 101.88 120.773 101.892C120.758 101.905 120.739 101.911 120.72 101.911H118.437C118.38 101.911 118.327 101.887 118.277 101.84C118.227 101.791 118.202 101.707 118.202 101.587V96.2239C118.202 96.1024 118.227 96.0184 118.277 95.9696C118.327 95.9219 118.38 95.8981 118.437 95.8981H120.694C120.714 95.8981 120.732 95.9044 120.748 95.9169C120.763 95.9295 120.777 95.9495 120.786 95.9771C120.796 96.0046 120.805 96.0397 120.811 96.0823C120.816 96.1237 120.82 96.1763 120.82 96.2377C120.82 96.2928 120.816 96.3429 120.811 96.3843C120.805 96.4269 120.796 96.4595 120.786 96.487C120.777 96.5121 120.763 96.5309 120.748 96.5434C120.732 96.5572 120.714 96.5635 120.694 96.5635H118.834V98.4491H120.429C120.449 98.4491 120.467 98.4567 120.483 98.4704C120.498 98.4842 120.512 98.5043 120.523 98.5281C120.535 98.5531 120.542 98.587 120.547 98.6308C120.552 98.6734 120.555 98.7248 120.555 98.7837C120.555 98.8388 120.552 98.8877 120.547 98.9278C120.542 98.9691 120.535 99.0004 120.523 99.0255C120.512 99.0493 120.498 99.0693 120.483 99.0781C120.467 99.0894 120.449 99.0957 120.429 99.0957H118.834V101.247H120.72C120.739 101.247 120.758 101.253 120.773 101.266C120.789 101.278 120.803 101.297 120.816 101.323C120.828 101.35 120.837 101.384 120.841 101.426C120.846 101.467 120.848 101.52 120.848 101.582ZM125.051 101.791C125.051 101.815 125.049 101.837 125.04 101.856C125.034 101.875 125.017 101.888 124.992 101.902C124.968 101.915 124.933 101.924 124.889 101.93C124.845 101.936 124.788 101.94 124.714 101.94C124.65 101.94 124.597 101.936 124.557 101.93C124.517 101.924 124.484 101.912 124.46 101.9C124.436 101.886 124.416 101.867 124.402 101.842C124.389 101.816 124.377 101.786 124.367 101.748L123.931 100.331C123.879 100.169 123.825 100.022 123.77 99.8875C123.716 99.7522 123.649 99.6369 123.573 99.5379C123.498 99.4415 123.408 99.365 123.306 99.3112C123.203 99.2573 123.078 99.231 122.934 99.231H122.511V101.791C122.511 101.815 122.505 101.837 122.495 101.856C122.484 101.875 122.466 101.888 122.443 101.9C122.42 101.911 122.388 101.92 122.347 101.927C122.307 101.935 122.256 101.94 122.195 101.94C122.133 101.94 122.083 101.935 122.042 101.927C122.002 101.92 121.969 101.911 121.945 101.9C121.92 101.888 121.903 101.875 121.894 101.856C121.884 101.837 121.879 101.815 121.879 101.791V96.2239C121.879 96.1024 121.904 96.0184 121.954 95.9696C122.004 95.9219 122.057 95.8981 122.113 95.8981H123.125C123.245 95.8981 123.344 95.9019 123.425 95.9094C123.504 95.9169 123.575 95.927 123.639 95.9345C123.824 95.9758 123.986 96.0397 124.126 96.1262C124.268 96.2126 124.386 96.3229 124.481 96.457C124.577 96.5898 124.648 96.7426 124.697 96.913C124.745 97.0859 124.769 97.2751 124.769 97.4831C124.769 97.6848 124.747 97.8653 124.704 98.0244C124.661 98.1835 124.601 98.3251 124.518 98.4466C124.438 98.5694 124.341 98.6759 124.228 98.7661C124.115 98.8551 123.99 98.9315 123.849 98.9929C123.928 99.0355 123.998 99.0906 124.062 99.1583C124.126 99.2247 124.185 99.3036 124.241 99.3976C124.296 99.4903 124.348 99.5968 124.397 99.7171C124.446 99.8387 124.495 99.974 124.544 100.127L124.971 101.451C125.005 101.563 125.027 101.642 125.039 101.686C125.046 101.731 125.051 101.766 125.051 101.791ZM124.099 97.5671C124.099 97.3303 124.057 97.1323 123.974 96.9694C123.89 96.8078 123.751 96.69 123.555 96.6186C123.494 96.596 123.425 96.5822 123.347 96.5722C123.27 96.5635 123.169 96.5584 123.045 96.5584H122.511V98.5832H123.129C123.296 98.5832 123.44 98.5581 123.56 98.508C123.682 98.4567 123.782 98.3852 123.864 98.2938C123.944 98.2023 124.005 98.0946 124.042 97.9718C124.08 97.8465 124.099 97.7124 124.099 97.5671ZM127.788 101.772C127.778 101.807 127.766 101.833 127.748 101.856C127.73 101.878 127.707 101.893 127.676 101.906C127.645 101.92 127.606 101.927 127.559 101.932C127.511 101.936 127.452 101.94 127.38 101.94C127.326 101.94 127.279 101.939 127.238 101.936C127.198 101.935 127.163 101.932 127.134 101.926C127.104 101.92 127.079 101.911 127.058 101.905C127.038 101.897 127.02 101.886 127.005 101.875C126.99 101.862 126.979 101.846 126.969 101.831C126.961 101.813 126.954 101.792 126.946 101.767L125.391 96.1826C125.37 96.1136 125.36 96.0585 125.359 96.0172C125.359 95.9746 125.367 95.9432 125.391 95.9219C125.413 95.8994 125.448 95.8856 125.498 95.8793C125.546 95.8731 125.613 95.8693 125.695 95.8693C125.764 95.8693 125.818 95.8731 125.861 95.8781C125.901 95.8818 125.931 95.8906 125.952 95.9031C125.976 95.9157 125.992 95.932 126.004 95.952C126.015 95.9708 126.025 95.9971 126.035 96.0284L127.399 101.088H127.402L128.729 96.0385C128.737 96.0034 128.746 95.9758 128.756 95.9545C128.764 95.932 128.782 95.9157 128.807 95.9031C128.831 95.8906 128.866 95.8818 128.91 95.8781C128.954 95.8731 129.013 95.8693 129.086 95.8693C129.162 95.8693 129.223 95.8743 129.266 95.8818C129.31 95.8906 129.34 95.9044 129.357 95.927C129.372 95.947 129.378 95.9796 129.374 96.0222C129.371 96.0635 129.359 96.1187 129.339 96.1876L127.788 101.772ZM130.77 101.791C130.77 101.815 130.765 101.837 130.755 101.856C130.745 101.875 130.728 101.888 130.703 101.9C130.679 101.911 130.647 101.92 130.605 101.927C130.565 101.935 130.515 101.94 130.454 101.94C130.395 101.94 130.344 101.935 130.303 101.927C130.262 101.92 130.228 101.911 130.204 101.9C130.179 101.888 130.161 101.875 130.152 101.856C130.142 101.837 130.137 101.815 130.137 101.791V96.0184C130.137 95.9946 130.142 95.9733 130.154 95.9545C130.165 95.9345 130.184 95.9207 130.209 95.9094C130.235 95.8981 130.268 95.8906 130.308 95.8818C130.348 95.8743 130.397 95.8693 130.454 95.8693C130.515 95.8693 130.565 95.8743 130.605 95.8818C130.647 95.8906 130.679 95.8981 130.703 95.9094C130.728 95.9207 130.745 95.9345 130.755 95.9545C130.765 95.9733 130.77 95.9946 130.77 96.0184V101.791ZM135.211 101.062C135.211 101.11 135.21 101.153 135.207 101.191C135.205 101.228 135.201 101.261 135.195 101.288C135.188 101.316 135.181 101.342 135.171 101.362C135.161 101.385 135.143 101.411 135.119 101.442C135.094 101.474 135.043 101.52 134.965 101.583C134.886 101.647 134.789 101.709 134.673 101.771C134.556 101.831 134.423 101.881 134.272 101.922C134.122 101.965 133.956 101.986 133.778 101.986C133.468 101.986 133.189 101.921 132.941 101.791C132.692 101.66 132.48 101.469 132.305 101.216C132.13 100.96 131.995 100.647 131.901 100.273C131.806 99.9 131.759 99.4703 131.759 98.9829C131.759 98.4855 131.81 98.0407 131.912 97.6498C132.013 97.2588 132.157 96.9293 132.34 96.6587C132.524 96.3868 132.744 96.18 133 96.0385C133.256 95.8956 133.539 95.8242 133.851 95.8242C133.989 95.8242 134.122 95.8392 134.252 95.8731C134.381 95.9044 134.502 95.9458 134.612 95.9946C134.723 96.046 134.821 96.1024 134.906 96.1675C134.991 96.2327 135.052 96.2865 135.084 96.3279C135.117 96.3692 135.139 96.4006 135.148 96.4231C135.158 96.4457 135.167 96.4707 135.172 96.4995C135.178 96.5296 135.183 96.5647 135.187 96.6035C135.191 96.6449 135.193 96.6925 135.193 96.7489C135.193 96.8103 135.191 96.8629 135.186 96.9068C135.181 96.9506 135.173 96.9869 135.163 97.017C135.153 97.0446 135.142 97.0671 135.128 97.0822C135.114 97.0947 135.098 97.1022 135.079 97.1022C135.044 97.1022 134.996 97.0721 134.935 97.012C134.875 96.9519 134.796 96.8855 134.698 96.8115C134.601 96.7389 134.484 96.6725 134.345 96.6123C134.207 96.5522 134.041 96.5221 133.847 96.5221C133.636 96.5221 133.444 96.5735 133.272 96.6812C133.099 96.7877 132.951 96.9456 132.829 97.1523C132.706 97.3603 132.611 97.6147 132.544 97.9129C132.477 98.2111 132.443 98.5531 132.443 98.9378C132.443 99.3174 132.475 99.6557 132.541 99.9477C132.605 100.241 132.699 100.485 132.819 100.682C132.941 100.879 133.09 101.028 133.266 101.128C133.443 101.229 133.642 101.28 133.866 101.28C134.054 101.28 134.22 101.249 134.36 101.191C134.501 101.133 134.621 101.067 134.72 100.993C134.819 100.92 134.901 100.855 134.965 100.796C135.029 100.737 135.079 100.707 135.116 100.707C135.133 100.707 135.147 100.712 135.16 100.722C135.172 100.731 135.182 100.748 135.19 100.776C135.196 100.801 135.202 100.837 135.206 100.885C135.21 100.931 135.211 100.99 135.211 101.062ZM138.696 101.582C138.696 101.637 138.693 101.686 138.688 101.727C138.685 101.771 138.676 101.805 138.663 101.832C138.651 101.861 138.637 101.88 138.621 101.892C138.606 101.905 138.587 101.911 138.568 101.911H136.284C136.227 101.911 136.175 101.887 136.125 101.84C136.074 101.791 136.049 101.707 136.049 101.587V96.2239C136.049 96.1024 136.074 96.0184 136.125 95.9696C136.175 95.9219 136.227 95.8981 136.284 95.8981H138.542C138.562 95.8981 138.579 95.9044 138.596 95.9169C138.611 95.9295 138.624 95.9495 138.633 95.9771C138.643 96.0046 138.652 96.0397 138.658 96.0823C138.663 96.1237 138.667 96.1763 138.667 96.2377C138.667 96.2928 138.663 96.3429 138.658 96.3843C138.652 96.4269 138.643 96.4595 138.633 96.487C138.624 96.5121 138.611 96.5309 138.596 96.5434C138.579 96.5572 138.562 96.5635 138.542 96.5635H136.682V98.4491H138.277C138.297 98.4491 138.314 98.4567 138.331 98.4704C138.346 98.4842 138.36 98.5043 138.371 98.5281C138.382 98.5531 138.39 98.587 138.395 98.6308C138.4 98.6734 138.402 98.7248 138.402 98.7837C138.402 98.8388 138.4 98.8877 138.395 98.9278C138.39 98.9691 138.382 99.0004 138.371 99.0255C138.36 99.0493 138.346 99.0693 138.331 99.0781C138.314 99.0894 138.297 99.0957 138.277 99.0957H136.682V101.247H138.568C138.587 101.247 138.606 101.253 138.621 101.266C138.637 101.278 138.651 101.297 138.663 101.323C138.676 101.35 138.685 101.384 138.688 101.426C138.693 101.467 138.696 101.52 138.696 101.582ZM142.207 100.226C142.207 100.506 142.166 100.757 142.084 100.978C142.001 101.198 141.888 101.384 141.742 101.536C141.596 101.691 141.425 101.807 141.227 101.882C141.03 101.96 140.818 102 140.59 102C140.43 102 140.282 101.982 140.147 101.947C140.011 101.915 139.889 101.873 139.783 101.822C139.676 101.773 139.587 101.723 139.514 101.67C139.441 101.617 139.391 101.571 139.364 101.535C139.335 101.498 139.315 101.45 139.301 101.392C139.287 101.336 139.281 101.26 139.281 101.163C139.281 101.094 139.283 101.039 139.288 100.993C139.293 100.949 139.301 100.912 139.31 100.885C139.32 100.856 139.332 100.837 139.347 100.826C139.361 100.816 139.379 100.811 139.399 100.811C139.433 100.811 139.481 100.836 139.543 100.889C139.606 100.943 139.686 100.999 139.784 101.062C139.883 101.123 140.001 101.182 140.139 101.236C140.277 101.29 140.438 101.316 140.618 101.316C140.756 101.316 140.882 101.292 140.996 101.247C141.11 101.201 141.208 101.134 141.29 101.05C141.373 100.964 141.435 100.86 141.479 100.736C141.523 100.613 141.546 100.471 141.546 100.312C141.546 100.143 141.514 99.9965 141.453 99.8762C141.393 99.756 141.311 99.6495 141.211 99.558C141.11 99.4653 140.996 99.3826 140.867 99.3074C140.739 99.231 140.607 99.1533 140.472 99.0744C140.337 98.9967 140.206 98.9077 140.079 98.8125C139.951 98.7148 139.837 98.602 139.736 98.4729C139.636 98.3426 139.554 98.1898 139.492 98.0144C139.43 97.8402 139.399 97.631 139.399 97.3841C139.399 97.1335 139.435 96.9105 139.507 96.7138C139.579 96.5171 139.68 96.3517 139.808 96.2189C139.937 96.0861 140.09 95.9833 140.268 95.9144C140.445 95.8443 140.637 95.8092 140.843 95.8092C140.948 95.8092 141.055 95.8217 141.162 95.8443C141.268 95.8681 141.369 95.8981 141.463 95.9382C141.557 95.9758 141.641 96.0209 141.714 96.0685C141.788 96.1161 141.837 96.155 141.86 96.1838C141.883 96.2139 141.898 96.2364 141.906 96.254C141.913 96.2715 141.92 96.2928 141.924 96.3191C141.929 96.3454 141.932 96.3768 141.935 96.4143C141.937 96.4519 141.939 96.4996 141.939 96.5584C141.939 96.6136 141.937 96.6624 141.934 96.7075C141.93 96.7501 141.924 96.7865 141.917 96.8165C141.91 96.8454 141.898 96.8679 141.886 96.8817C141.872 96.8942 141.857 96.9017 141.839 96.9017C141.813 96.9017 141.77 96.8804 141.713 96.8378C141.655 96.7927 141.585 96.7451 141.502 96.69C141.418 96.6361 141.32 96.5873 141.206 96.5422C141.092 96.4958 140.964 96.4745 140.822 96.4745C140.689 96.4745 140.573 96.4958 140.475 96.5422C140.377 96.5873 140.297 96.6474 140.233 96.7213C140.169 96.794 140.121 96.883 140.09 96.9869C140.057 97.0884 140.041 97.1962 140.041 97.3115C140.041 97.4781 140.073 97.6222 140.134 97.7425C140.196 97.864 140.276 97.9718 140.379 98.0632C140.48 98.1572 140.596 98.2424 140.725 98.3188C140.856 98.3965 140.987 98.4742 141.123 98.5531C141.257 98.6333 141.39 98.7198 141.519 98.8137C141.65 98.909 141.765 99.0192 141.867 99.1483C141.969 99.2773 142.052 99.4289 142.113 99.6031C142.176 99.7798 142.207 99.9852 142.207 100.226Z" fill="white"/>
<path d="M144.817 56.4766C143.989 56.4766 143.181 56.7209 142.493 57.1808C141.806 57.6394 141.268 58.2921 140.952 59.0552C140.636 59.8182 140.553 60.6577 140.714 61.4684C140.876 62.279 141.273 63.022 141.86 63.6072C142.444 64.191 143.19 64.5895 144 64.7498C144.812 64.9115 145.653 64.8288 146.417 64.5118C147.182 64.196 147.835 63.6598 148.295 62.9732C148.755 62.2865 149 61.4784 149 60.6527C149 59.5451 148.559 58.4826 147.775 57.6995C146.991 56.9164 145.927 56.4766 144.817 56.4766ZM144.817 63.9943C144.155 63.9943 143.508 63.7989 142.958 63.4317C142.408 63.0646 141.979 62.5421 141.725 61.932C141.472 61.3218 141.405 60.6502 141.534 60.0012C141.664 59.3534 141.982 58.7582 142.451 58.2909C142.919 57.8235 143.515 57.5053 144.164 57.3762C144.814 57.2472 145.486 57.3136 146.097 57.5667C146.708 57.8198 147.232 58.2483 147.599 58.7971C147.967 59.3471 148.163 59.9924 148.163 60.654C148.163 61.5398 147.81 62.3905 147.183 63.017C146.555 63.6422 145.705 63.9943 144.817 63.9943Z" fill="white"/>
<path d="M146.49 59.817C146.49 59.485 146.358 59.1655 146.122 58.9312C145.888 58.6956 145.568 58.5641 145.235 58.5641H143.143V62.7401H143.98V61.07H144.591L145.708 62.7401H146.712L145.562 61.0198C145.826 60.9484 146.061 60.7918 146.229 60.575C146.397 60.3583 146.489 60.0914 146.49 59.817ZM145.235 60.2355H143.98V59.3998H145.235C145.346 59.3998 145.452 59.4436 145.531 59.5226C145.609 59.6015 145.653 59.7067 145.653 59.8183C145.653 59.9285 145.609 60.035 145.531 60.114C145.452 60.1916 145.346 60.2355 145.235 60.2355Z" fill="white"/>
</g>
<defs>
<clipPath id="clip0_107_583">
<rect width="149" height="102" fill="white"/>
</clipPath>
</defs>
</svg>
