<svg width="81" height="115" viewBox="0 0 81 115" fill="none" xmlns="http://www.w3.org/2000/svg">
<path d="M2.697 114.302H0V77.2437H0.263955C3.64879 77.2437 6.43584 78.5083 8.63754 81.0469C10.8392 83.576 11.9401 86.7626 11.9401 90.5986C11.9401 93.0386 11.496 95.2219 10.6079 97.1689C9.72596 99.108 8.2711 101.053 6.26349 103.016C6.71377 104.717 7.44663 106.278 8.45743 107.707C9.47443 109.136 10.6855 110.302 12.0876 111.197V115C10.6979 114.261 9.49461 113.432 8.47606 112.494C7.46682 111.568 6.5849 110.491 5.82564 109.275C5.02135 107.937 4.33818 106.401 3.78542 104.659C3.22491 102.919 2.94077 101.703 2.94077 100.997C2.94077 100.816 3.23112 100.578 3.79785 100.274C4.37078 99.9704 4.89869 99.5838 5.37536 99.1159C6.6175 97.942 7.55687 96.643 8.19347 95.2141C8.83162 93.7851 9.14681 92.2654 9.14681 90.6471C9.14681 88.2666 8.54127 86.1882 7.33795 84.3977C6.12841 82.6072 4.5835 81.5398 2.697 81.1861V114.302ZM37.1136 108.38V112.233C35.8202 113.161 34.5781 113.842 33.3872 114.261C32.2025 114.687 30.9604 114.901 29.667 114.901C25.4064 114.901 21.8586 113.07 19.0265 109.416C16.2006 105.76 14.7846 101.21 14.7846 95.7728C14.7846 90.3357 16.2006 85.7859 19.0265 82.1315C21.8586 78.477 25.4064 76.6442 29.667 76.6442C30.9868 76.6442 32.2413 76.8493 33.4384 77.2687C34.6293 77.6882 35.8591 78.3533 37.1136 79.2642V83.166C35.8715 81.9342 34.6495 81.0468 33.4446 80.5053C32.2475 79.9716 30.8765 79.6993 29.3456 79.6993C26.2744 79.6993 23.6426 81.0218 21.4409 83.659C19.2454 86.2946 17.9256 89.7362 17.5018 93.9902H31.3594V97.1939H17.5018C17.8434 101.539 19.1165 105.069 21.3307 107.78C23.5448 110.491 26.2169 111.846 29.3456 111.846C30.8765 111.846 32.2475 111.576 33.4446 111.042C34.6495 110.499 35.8715 109.613 37.1136 108.38ZM40.6351 114.302V38.675L41.1366 38.6735L41.9533 0L42.7452 38.6735L43.3321 38.675V114.302H40.6351ZM49.6717 97.4068H62.031C61.5729 94.6475 60.8401 91.9211 59.8231 89.2182C58.7998 86.5168 57.4801 83.8061 55.8575 81.0969C54.2862 83.6512 52.9928 86.2617 51.9758 88.9474C50.9588 91.6425 50.1934 94.4581 49.6717 97.4068ZM46.2806 114.302C46.2666 113.981 46.2604 113.627 46.2542 113.242C46.248 112.856 46.2418 112.289 46.2418 111.533C46.2418 103.961 47.0135 97.4068 48.5522 91.8632C50.0909 86.3196 52.5301 81.2847 55.8575 76.7428C59.1927 81.2847 61.6319 86.3118 63.1691 91.8382C64.7078 97.3661 65.481 103.871 65.481 111.345C65.481 112.125 65.4748 112.724 65.467 113.136C65.4608 113.546 65.4484 113.933 65.422 114.302H62.9703V112.979C62.9703 110.359 62.9253 108.051 62.8352 106.03C62.7514 104.019 62.6225 102.262 62.4626 100.75H49.2028C49.0413 102.565 48.9186 104.586 48.8348 106.829C48.7509 109.07 48.7137 111.558 48.7137 114.302H46.2806ZM70.7974 114.302C72.0907 113.177 73.0767 111.829 73.7583 110.244C74.4337 108.668 74.7753 106.926 74.7753 105.038C74.7753 103.772 74.5564 102.573 74.1123 101.44C73.6745 100.307 72.9416 99.0908 71.9044 97.7934C71.8835 97.7645 71.8589 97.7315 71.8308 97.6939C71.763 97.6029 71.6749 97.4849 71.5706 97.3332C68.8658 93.901 67.515 90.7551 67.515 87.88C67.515 84.7671 68.3457 82.0986 70.0055 79.8809C71.6669 77.6553 73.7071 76.5456 76.1339 76.5456C76.9382 76.5456 77.7363 76.6771 78.5281 76.9322C79.32 77.1873 80.1429 77.5896 81 78.1311V81.6713C80.3106 80.9983 79.5778 80.4803 78.8045 80.1266C78.0251 79.7729 77.241 79.6007 76.4367 79.6007C74.6992 79.6007 73.2568 80.3566 72.1171 81.8763C70.9713 83.3882 70.3983 85.2929 70.3983 87.5921C70.3983 88.8911 70.6499 90.1228 71.1452 91.2966C71.6405 92.4705 72.4898 93.7773 73.7009 95.2219C75.0331 96.8073 76.005 98.3771 76.6028 99.9203C77.2084 101.473 77.5111 103.157 77.5111 104.988C77.5111 106.655 77.286 108.281 76.828 109.859C76.3777 111.444 75.7085 112.922 74.8141 114.302H70.7974Z" fill="white"/>
<path d="M2.697 114.302H0V77.2437H0.263955C3.64879 77.2437 6.43584 78.5083 8.63754 81.0469C10.8392 83.576 11.9401 86.7626 11.9401 90.5986C11.9401 93.0386 11.496 95.2219 10.6079 97.1689C9.72596 99.108 8.2711 101.053 6.26349 103.016C6.71377 104.717 7.44663 106.278 8.45743 107.707C9.47443 109.136 10.6855 110.302 12.0876 111.197V115C10.6979 114.261 9.49461 113.432 8.47606 112.494C7.46682 111.568 6.5849 110.491 5.82564 109.275C5.02135 107.937 4.33818 106.401 3.78542 104.659C3.22491 102.919 2.94077 101.703 2.94077 100.997C2.94077 100.816 3.23112 100.578 3.79785 100.274C4.37078 99.9704 4.89869 99.5838 5.37536 99.1159C6.6175 97.942 7.55687 96.643 8.19347 95.2141C8.83162 93.7851 9.14681 92.2654 9.14681 90.6471C9.14681 88.2666 8.54127 86.1882 7.33795 84.3977C6.12841 82.6072 4.5835 81.5398 2.697 81.1861V114.302ZM37.1136 108.38V112.233C35.8202 113.161 34.5781 113.842 33.3872 114.261C32.2025 114.687 30.9604 114.901 29.667 114.901C25.4064 114.901 21.8586 113.07 19.0265 109.416C16.2006 105.76 14.7846 101.21 14.7846 95.7728C14.7846 90.3357 16.2006 85.7859 19.0265 82.1315C21.8586 78.477 25.4064 76.6442 29.667 76.6442C30.9868 76.6442 32.2413 76.8493 33.4384 77.2687C34.6293 77.6882 35.8591 78.3533 37.1136 79.2642V83.166C35.8715 81.9342 34.6495 81.0468 33.4446 80.5053C32.2475 79.9716 30.8765 79.6993 29.3456 79.6993C26.2744 79.6993 23.6426 81.0218 21.4409 83.659C19.2454 86.2946 17.9256 89.7362 17.5018 93.9902H31.3594V97.1939H17.5018C17.8434 101.539 19.1165 105.069 21.3307 107.78C23.5448 110.491 26.2169 111.846 29.3456 111.846C30.8765 111.846 32.2475 111.576 33.4446 111.042C34.6495 110.499 35.8715 109.613 37.1136 108.38ZM40.6351 114.302V38.675L41.1366 38.6735L41.9533 0L42.7452 38.6735L43.3321 38.675V114.302H40.6351ZM49.6717 97.4068H62.031C61.5729 94.6475 60.8401 91.9211 59.8231 89.2182C58.7998 86.5168 57.4801 83.8061 55.8575 81.0969C54.2862 83.6512 52.9928 86.2617 51.9758 88.9474C50.9588 91.6425 50.1934 94.4581 49.6717 97.4068ZM46.2806 114.302C46.2666 113.981 46.2604 113.627 46.2542 113.242C46.248 112.856 46.2418 112.289 46.2418 111.533C46.2418 103.961 47.0135 97.4068 48.5522 91.8632C50.0909 86.3196 52.5301 81.2847 55.8575 76.7428C59.1927 81.2847 61.6319 86.3118 63.1691 91.8382C64.7078 97.3661 65.481 103.871 65.481 111.345C65.481 112.125 65.4748 112.724 65.467 113.136C65.4608 113.546 65.4484 113.933 65.422 114.302H62.9703V112.979C62.9703 110.359 62.9253 108.051 62.8352 106.03C62.7514 104.019 62.6225 102.262 62.4626 100.75H49.2028C49.0413 102.565 48.9186 104.586 48.8348 106.829C48.7509 109.07 48.7137 111.558 48.7137 114.302H46.2806ZM70.7974 114.302C72.0907 113.177 73.0767 111.829 73.7583 110.244C74.4337 108.668 74.7753 106.926 74.7753 105.038C74.7753 103.772 74.5564 102.573 74.1123 101.44C73.6745 100.307 72.9416 99.0908 71.9044 97.7934C71.8835 97.7645 71.8589 97.7315 71.8308 97.6939C71.763 97.6029 71.6749 97.4849 71.5706 97.3332C68.8658 93.901 67.515 90.7551 67.515 87.88C67.515 84.7671 68.3457 82.0986 70.0055 79.8809C71.6669 77.6553 73.7071 76.5456 76.1339 76.5456C76.9382 76.5456 77.7363 76.6771 78.5281 76.9322C79.32 77.1873 80.1429 77.5896 81 78.1311V81.6713C80.3106 80.9983 79.5778 80.4803 78.8045 80.1266C78.0251 79.7729 77.241 79.6007 76.4367 79.6007C74.6992 79.6007 73.2568 80.3566 72.1171 81.8763C70.9713 83.3882 70.3983 85.2929 70.3983 87.5921C70.3983 88.8911 70.6499 90.1228 71.1452 91.2966C71.6405 92.4705 72.4898 93.7773 73.7009 95.2219C75.0331 96.8073 76.005 98.3771 76.6028 99.9203C77.2084 101.473 77.5111 103.157 77.5111 104.988C77.5111 106.655 77.286 108.281 76.828 109.859C76.3777 111.444 75.7085 112.922 74.8141 114.302H70.7974Z" stroke="white"/>
</svg>
